<?xml version="1.0" encoding="utf-8" standalone="no"?>
<!DOCTYPE svg PUBLIC "-//W3C//DTD SVG 1.1//EN"
  "http://www.w3.org/Graphics/SVG/1.1/DTD/svg11.dtd">
<svg xmlns:xlink="http://www.w3.org/1999/xlink" width="720pt" height="576pt" viewBox="0 0 720 576" xmlns="http://www.w3.org/2000/svg" version="1.1">
 <metadata>
  <rdf:RDF xmlns:dc="http://purl.org/dc/elements/1.1/" xmlns:cc="http://creativecommons.org/ns#" xmlns:rdf="http://www.w3.org/1999/02/22-rdf-syntax-ns#">
   <cc:Work>
    <dc:type rdf:resource="http://purl.org/dc/dcmitype/StillImage"/>
    <dc:date>2026-03-06T15:15:07.311474</dc:date>
    <dc:format>image/svg+xml</dc:format>
    <dc:creator>
     <cc:Agent>
      <dc:title>Matplotlib v3.10.0, https://matplotlib.org/</dc:title>
     </cc:Agent>
    </dc:creator>
   </cc:Work>
  </rdf:RDF>
 </metadata>
 <defs>
  <style type="text/css">*{stroke-linejoin: round; stroke-linecap: butt}</style>
 </defs>
 <g id="figure_1">
  <g id="patch_1">
   <path d="M 0 576 
L 720 576 
L 720 0 
L 0 0 
z
" style="fill: #ffffff"/>
  </g>
  <g id="axes_1">
   <g id="patch_2">
    <path d="M 361.371393 294.816909 
Q 457.742254 230.096749 549.47235 168.493206 
" clip-path="url(#pc0b341de7c)" style="fill: none; stroke: #ff7f0e; stroke-width: 5; stroke-linecap: round"/>
    <path d="M 544.149515 169.176892 
L 549.47235 168.493206 
L 546.825598 173.161686 
" clip-path="url(#pc0b341de7c)" style="fill: none; stroke: #ff7f0e; stroke-width: 5; stroke-linecap: round"/>
   </g>
   <g id="patch_3">
    <path d="M 346.811694 295.09493 
Q 239.022508 228.538131 135.151237 164.400534 
" clip-path="url(#pc0b341de7c)" style="fill: none; stroke: #ff7f0e; stroke-width: 4.118505; stroke-linecap: round"/>
    <path d="M 137.974464 168.964458 
L 135.151237 164.400534 
L 140.496312 164.880307 
" clip-path="url(#pc0b341de7c)" style="fill: none; stroke: #ff7f0e; stroke-width: 4.118505; stroke-linecap: round"/>
   </g>
   <g id="patch_4">
    <path d="M 358.612513 292.207013 
Q 410.219898 205.57368 459.761562 122.408074 
" clip-path="url(#pc0b341de7c)" style="fill: none; stroke: #ff7f0e; stroke-width: 3.610245; stroke-linecap: round"/>
    <path d="M 455.243151 125.303581 
L 459.761562 122.408074 
L 459.366921 127.760107 
" clip-path="url(#pc0b341de7c)" style="fill: none; stroke: #ff7f0e; stroke-width: 3.610245; stroke-linecap: round"/>
   </g>
   <g id="patch_5">
    <path d="M 348.573131 293.047145 
Q 270.534415 201.231237 194.879306 112.219745 
" clip-path="url(#pc0b341de7c)" style="fill: none; stroke: #ff7f0e; stroke-width: 3.291969; stroke-linecap: round"/>
    <path d="M 196.159206 117.431449 
L 194.879306 112.219745 
L 199.816609 114.322848 
" clip-path="url(#pc0b341de7c)" style="fill: none; stroke: #ff7f0e; stroke-width: 3.291969; stroke-linecap: round"/>
   </g>
   <g id="patch_6">
    <path d="M 362.396123 302.38663 
Q 490.336154 345.078018 614.828207 386.618876 
" clip-path="url(#pc0b341de7c)" style="fill: none; stroke: #ff7f0e; stroke-width: 3.251125; stroke-linecap: round"/>
    <path d="M 611.034668 382.822949 
L 614.828207 386.618876 
L 609.515342 387.376152 
" clip-path="url(#pc0b341de7c)" style="fill: none; stroke: #ff7f0e; stroke-width: 3.251125; stroke-linecap: round"/>
   </g>
   <g id="patch_7">
    <path d="M 347.777534 305.47512 
Q 262.265849 383.318529 179.387619 458.764639 
" clip-path="url(#pc0b341de7c)" style="fill: none; stroke: #ff7f0e; stroke-width: 3.185234; stroke-linecap: round"/>
    <path d="M 184.552764 457.308178 
L 179.387619 458.764639 
L 181.321538 453.758646 
" clip-path="url(#pc0b341de7c)" style="fill: none; stroke: #ff7f0e; stroke-width: 3.185234; stroke-linecap: round"/>
   </g>
   <g id="patch_8">
    <path d="M 346.034823 296.706822 
Q 242.626935 259.404738 142.498105 223.285501 
" clip-path="url(#pc0b341de7c)" style="fill: none; stroke: #ff7f0e; stroke-width: 3.117866; stroke-linecap: round"/>
    <path d="M 146.198936 227.171868 
L 142.498105 223.285501 
L 147.827698 222.656657 
" clip-path="url(#pc0b341de7c)" style="fill: none; stroke: #ff7f0e; stroke-width: 3.117866; stroke-linecap: round"/>
   </g>
   <g id="patch_9">
    <path d="M 358.359911 307.234627 
Q 405.752612 393.310403 451.464775 476.333945 
" clip-path="url(#pc0b341de7c)" style="fill: none; stroke: #ff7f0e; stroke-width: 3.116452; stroke-linecap: round"/>
    <path d="M 451.252043 470.9716 
L 451.464775 476.333945 
L 447.04726 473.286723 
" clip-path="url(#pc0b341de7c)" style="fill: none; stroke: #ff7f0e; stroke-width: 3.116452; stroke-linecap: round"/>
   </g>
   <g id="patch_10">
    <path d="M 359.299917 306.632077 
Q 424.623602 395.796188 487.934134 482.212429 
" clip-path="url(#pc0b341de7c)" style="fill: none; stroke: #ff7f0e; stroke-width: 3.046778; stroke-linecap: round"/>
    <path d="M 487.033405 476.921996 
L 487.934134 482.212429 
L 483.161349 479.758752 
" clip-path="url(#pc0b341de7c)" style="fill: none; stroke: #ff7f0e; stroke-width: 3.046778; stroke-linecap: round"/>
   </g>
   <g id="patch_11">
    <path d="M 346.082368 302.701965 
Q 236.910066 343.901836 130.89235 383.911217 
" clip-path="url(#pc0b341de7c)" style="fill: none; stroke: #ff7f0e; stroke-width: 3.015783; stroke-linecap: round"/>
    <path d="M 136.230588 384.461868 
L 130.89235 383.911217 
L 134.535813 379.971017 
" clip-path="url(#pc0b341de7c)" style="fill: none; stroke: #ff7f0e; stroke-width: 3.015783; stroke-linecap: round"/>
   </g>
   <g id="patch_12">
    <path d="M 354.994515 291.02632 
Q 364.097154 194.535997 372.883634 101.397041 
" clip-path="url(#pc0b341de7c)" style="fill: none; stroke: #ff7f0e; stroke-width: 3.010862; stroke-linecap: round"/>
    <path d="M 370.043425 105.950415 
L 372.883634 101.397041 
L 374.822208 106.401233 
" clip-path="url(#pc0b341de7c)" style="fill: none; stroke: #ff7f0e; stroke-width: 3.010862; stroke-linecap: round"/>
   </g>
   <g id="patch_13">
    <path d="M 345.519719 299.487678 
Q 220.362455 297.206954 98.554027 294.987256 
" clip-path="url(#pc0b341de7c)" style="fill: none; stroke: #ff7f0e; stroke-width: 2.995789; stroke-linecap: round"/>
    <path d="M 103.309503 297.474313 
L 98.554027 294.987256 
L 103.396958 292.675109 
" clip-path="url(#pc0b341de7c)" style="fill: none; stroke: #ff7f0e; stroke-width: 2.995789; stroke-linecap: round"/>
   </g>
   <g id="patch_14">
    <path d="M 357.156447 307.779639 
Q 393.988571 408.483013 429.672552 506.047224 
" clip-path="url(#pc0b341de7c)" style="fill: none; stroke: #ff7f0e; stroke-width: 2.989659; stroke-linecap: round"/>
    <path d="M 430.277749 500.714895 
L 429.672552 506.047224 
L 425.769807 502.363669 
" clip-path="url(#pc0b341de7c)" style="fill: none; stroke: #ff7f0e; stroke-width: 2.989659; stroke-linecap: round"/>
   </g>
   <g id="patch_15">
    <path d="M 361.141627 304.803961 
Q 455.956121 375.073988 548.090562 443.357742 
" clip-path="url(#pc0b341de7c)" style="fill: none; stroke: #ff7f0e; stroke-width: 2.983683; stroke-linecap: round"/>
    <path d="M 545.663242 438.571499 
L 548.090562 443.357742 
L 542.805176 442.427853 
" clip-path="url(#pc0b341de7c)" style="fill: none; stroke: #ff7f0e; stroke-width: 2.983683; stroke-linecap: round"/>
   </g>
   <g id="patch_16">
    <path d="M 349.999592 292.062074 
Q 295.64614 193.495599 242.90301 97.849338 
" clip-path="url(#pc0b341de7c)" style="fill: none; stroke: #ff7f0e; stroke-width: 2.982721; stroke-linecap: round"/>
    <path d="M 243.119225 103.211544 
L 242.90301 97.849338 
L 247.322504 100.89369 
" clip-path="url(#pc0b341de7c)" style="fill: none; stroke: #ff7f0e; stroke-width: 2.982721; stroke-linecap: round"/>
   </g>
   <g id="patch_17">
    <path d="M 361.72633 295.398157 
Q 478.857001 229.460306 593.103349 165.146163 
" clip-path="url(#pc0b341de7c)" style="fill: none; stroke: #ff7f0e; stroke-width: 2.960505; stroke-linecap: round"/>
    <path d="M 587.743248 165.409438 
L 593.103349 165.146163 
L 590.097908 169.592209 
" clip-path="url(#pc0b341de7c)" style="fill: none; stroke: #ff7f0e; stroke-width: 2.960505; stroke-linecap: round"/>
   </g>
   <g id="patch_18">
    <path d="M 349.634098 307.018474 
Q 292.785027 399.193004 237.671011 488.554332 
" clip-path="url(#pc0b341de7c)" style="fill: none; stroke: #ff7f0e; stroke-width: 2.956286; stroke-linecap: round"/>
    <path d="M 242.233467 485.728735 
L 237.671011 488.554332 
L 238.148008 483.209009 
" clip-path="url(#pc0b341de7c)" style="fill: none; stroke: #ff7f0e; stroke-width: 2.956286; stroke-linecap: round"/>
   </g>
   <g id="patch_19">
    <path d="M 362.456999 302.209246 
Q 480.369472 338.737788 595.130186 374.289934 
" clip-path="url(#pc0b341de7c)" style="fill: none; stroke: #ff7f0e; stroke-width: 2.951194; stroke-linecap: round"/>
    <path d="M 591.255369 370.577012 
L 595.130186 374.289934 
L 589.834958 375.162034 
" clip-path="url(#pc0b341de7c)" style="fill: none; stroke: #ff7f0e; stroke-width: 2.951194; stroke-linecap: round"/>
   </g>
   <g id="patch_20">
    <path d="M 345.568491 300.570759 
Q 217.638881 314.313576 92.976838 327.705375 
" clip-path="url(#pc0b341de7c)" style="fill: none; stroke: #ff7f0e; stroke-width: 2.939417; stroke-linecap: round"/>
    <path d="M 98.005724 329.578956 
L 92.976838 327.705375 
L 97.493035 324.806415 
" clip-path="url(#pc0b341de7c)" style="fill: none; stroke: #ff7f0e; stroke-width: 2.939417; stroke-linecap: round"/>
   </g>
   <g id="patch_21">
    <path d="M 347.565809 294.061349 
Q 252.932274 214.181946 160.799462 136.413383 
" clip-path="url(#pc0b341de7c)" style="fill: none; stroke: #ff7f0e; stroke-width: 2.927013; stroke-linecap: round"/>
    <path d="M 162.919386 141.343486 
L 160.799462 136.413383 
L 166.015499 137.675505 
" clip-path="url(#pc0b341de7c)" style="fill: none; stroke: #ff7f0e; stroke-width: 2.927013; stroke-linecap: round"/>
   </g>
   <g id="patch_22">
    <path d="M 351.291507 291.482072 
Q 319.506495 201.69504 288.81317 114.991828 
" clip-path="url(#pc0b341de7c)" style="fill: none; stroke: #ff7f0e; stroke-width: 2.925985; stroke-linecap: round"/>
    <path d="M 288.152564 120.317577 
L 288.81317 114.991828 
L 292.677405 118.715763 
" clip-path="url(#pc0b341de7c)" style="fill: none; stroke: #ff7f0e; stroke-width: 2.925985; stroke-linecap: round"/>
   </g>
   <g id="patch_23">
    <path d="M 361.773926 295.485926 
Q 448.02935 248.230557 531.418798 202.545324 
" clip-path="url(#pc0b341de7c)" style="fill: none; stroke: #ff7f0e; stroke-width: 2.922894; stroke-linecap: round"/>
    <path d="M 526.056018 202.746771 
L 531.418798 202.545324 
L 528.362288 206.956417 
" clip-path="url(#pc0b341de7c)" style="fill: none; stroke: #ff7f0e; stroke-width: 2.922894; stroke-linecap: round"/>
   </g>
   <g id="patch_24">
    <path d="M 355.613235 308.186919 
Q 371.987294 405.864178 387.825348 500.343968 
" clip-path="url(#pc0b341de7c)" style="fill: none; stroke: #ff7f0e; stroke-width: 2.899808; stroke-linecap: round"/>
    <path d="M 389.398749 495.213236 
L 387.825348 500.343968 
L 384.664803 496.006808 
" clip-path="url(#pc0b341de7c)" style="fill: none; stroke: #ff7f0e; stroke-width: 2.899808; stroke-linecap: round"/>
   </g>
   <g id="patch_25">
    <path d="M 360.272424 293.492331 
Q 447.6663 205.206489 532.792373 119.211595 
" clip-path="url(#pc0b341de7c)" style="fill: none; stroke: #ff7f0e; stroke-width: 2.883245; stroke-linecap: round"/>
    <path d="M 527.709886 120.934478 
L 532.792373 119.211595 
L 531.121187 124.311314 
" clip-path="url(#pc0b341de7c)" style="fill: none; stroke: #ff7f0e; stroke-width: 2.883245; stroke-linecap: round"/>
   </g>
   <g id="patch_26">
    <path d="M 357.366839 291.588877 
Q 396.526584 192.545574 434.501684 96.49849 
" clip-path="url(#pc0b341de7c)" style="fill: none; stroke: #ff7f0e; stroke-width: 2.881764; stroke-linecap: round"/>
    <path d="M 430.504919 100.079812 
L 434.501684 96.49849 
L 434.968683 101.844695 
" clip-path="url(#pc0b341de7c)" style="fill: none; stroke: #ff7f0e; stroke-width: 2.881764; stroke-linecap: round"/>
   </g>
   <g id="patch_27">
    <path d="M 346.325619 303.288324 
Q 230.124651 357.171862 116.846172 409.700213 
" clip-path="url(#pc0b341de7c)" style="fill: none; stroke: #ff7f0e; stroke-width: 2.881316; stroke-linecap: round"/>
    <path d="M 122.210408 409.858242 
L 116.846172 409.700213 
L 120.191137 405.503642 
" clip-path="url(#pc0b341de7c)" style="fill: none; stroke: #ff7f0e; stroke-width: 2.881316; stroke-linecap: round"/>
   </g>
   <g id="patch_28">
    <path d="M 345.756914 301.642307 
Q 217.046375 332.149526 91.466871 361.91462 
" clip-path="url(#pc0b341de7c)" style="fill: none; stroke: #ff7f0e; stroke-width: 2.878073; stroke-linecap: round"/>
    <path d="M 96.690985 363.142885 
L 91.466871 361.91462 
L 95.583951 358.472288 
" clip-path="url(#pc0b341de7c)" style="fill: none; stroke: #ff7f0e; stroke-width: 2.878073; stroke-linecap: round"/>
   </g>
   <g id="patch_29">
    <path d="M 351.004106 307.698738 
Q 315.260499 398.29495 280.697436 485.898939 
" clip-path="url(#pc0b341de7c)" style="fill: none; stroke: #ff7f0e; stroke-width: 2.877093; stroke-linecap: round"/>
    <path d="M 284.69159 482.314705 
L 280.697436 485.898939 
L 280.226541 480.553075 
" clip-path="url(#pc0b341de7c)" style="fill: none; stroke: #ff7f0e; stroke-width: 2.877093; stroke-linecap: round"/>
   </g>
   <g id="patch_30">
    <path d="M 352.549302 291.143052 
Q 332.485907 186.622375 313.023471 85.2324 
" clip-path="url(#pc0b341de7c)" style="fill: none; stroke: #ff7f0e; stroke-width: 2.851308; stroke-linecap: round"/>
    <path d="M 311.571372 90.398773 
L 313.023471 85.2324 
L 316.28531 89.493903 
" clip-path="url(#pc0b341de7c)" style="fill: none; stroke: #ff7f0e; stroke-width: 2.851308; stroke-linecap: round"/>
   </g>
   <g id="patch_31">
    <path d="M 361.794332 303.769112 
Q 474.057111 364.576992 583.528703 423.873006 
" clip-path="url(#pc0b341de7c)" style="fill: none; stroke: #ff7f0e; stroke-width: 2.839221; stroke-linecap: round"/>
    <path d="M 580.451147 419.47657 
L 583.528703 423.873006 
L 578.16502 423.697189 
" clip-path="url(#pc0b341de7c)" style="fill: none; stroke: #ff7f0e; stroke-width: 2.839221; stroke-linecap: round"/>
   </g>
   <g id="patch_32">
    <path d="M 345.830438 297.361896 
Q 215.207143 261.642155 87.643112 226.758989 
" clip-path="url(#pc0b341de7c)" style="fill: none; stroke: #ff7f0e; stroke-width: 2.836753; stroke-linecap: round"/>
    <path d="M 91.640068 230.340097 
L 87.643112 226.758989 
L 92.906172 225.710089 
" clip-path="url(#pc0b341de7c)" style="fill: none; stroke: #ff7f0e; stroke-width: 2.836753; stroke-linecap: round"/>
   </g>
   <g id="patch_33">
    <path d="M 360.382163 305.695507 
Q 447.601391 390.793995 532.555454 473.682396 
" clip-path="url(#pc0b341de7c)" style="fill: none; stroke: #ff7f0e; stroke-width: 2.830613; stroke-linecap: round"/>
    <path d="M 530.795874 468.612497 
L 532.555454 473.682396 
L 527.443787 472.048121 
" clip-path="url(#pc0b341de7c)" style="fill: none; stroke: #ff7f0e; stroke-width: 2.830613; stroke-linecap: round"/>
   </g>
   <g id="patch_34">
    <path d="M 353.901827 308.298289 
Q 350.656559 408.737927 347.513443 506.016023 
" clip-path="url(#pc0b341de7c)" style="fill: none; stroke: #ff7f0e; stroke-width: 2.829246; stroke-linecap: round"/>
    <path d="M 350.067201 501.296031 
L 347.513443 506.016023 
L 345.269704 501.141021 
" clip-path="url(#pc0b341de7c)" style="fill: none; stroke: #ff7f0e; stroke-width: 2.829246; stroke-linecap: round"/>
   </g>
   <g id="patch_35">
    <path d="M 362.444786 297.039436 
Q 489.773583 256.882834 614.08762 217.677018 
" clip-path="url(#pc0b341de7c)" style="fill: none; stroke: #ff7f0e; stroke-width: 2.827405; stroke-linecap: round"/>
    <path d="M 608.788024 216.831864 
L 614.08762 217.677018 
L 610.231739 221.409602 
" clip-path="url(#pc0b341de7c)" style="fill: none; stroke: #ff7f0e; stroke-width: 2.827405; stroke-linecap: round"/>
   </g>
   <g id="patch_36">
    <path d="M 352.098778 308.050399 
Q 327.068176 409.066751 302.796769 507.01921 
" clip-path="url(#pc0b341de7c)" style="fill: none; stroke: #ff7f0e; stroke-width: 2.823305; stroke-linecap: round"/>
    <path d="M 306.280786 502.937345 
L 302.796769 507.01921 
L 301.621687 501.782877 
" clip-path="url(#pc0b341de7c)" style="fill: none; stroke: #ff7f0e; stroke-width: 2.823305; stroke-linecap: round"/>
   </g>
   <g id="patch_37">
    <path d="M 348.501206 306.181899 
Q 280.35135 384.604068 214.269026 460.647062 
" clip-path="url(#pc0b341de7c)" style="fill: none; stroke: #ff7f0e; stroke-width: 2.819243; stroke-linecap: round"/>
    <path d="M 219.229093 458.598224 
L 214.269026 460.647062 
L 215.605995 455.449706 
" clip-path="url(#pc0b341de7c)" style="fill: none; stroke: #ff7f0e; stroke-width: 2.819243; stroke-linecap: round"/>
   </g>
   <g id="patch_38">
    <path d="M 362.838249 299.542896 
Q 501.384685 297.900498 636.785656 296.295387 
" clip-path="url(#pc0b341de7c)" style="fill: none; stroke: #ff7f0e; stroke-width: 2.813587; stroke-linecap: round"/>
    <path d="M 631.957544 293.952454 
L 636.785656 296.295387 
L 632.014442 298.752116 
" clip-path="url(#pc0b341de7c)" style="fill: none; stroke: #ff7f0e; stroke-width: 2.813587; stroke-linecap: round"/>
   </g>
   <g id="patch_39">
    <path d="M 346.302468 296.056078 
Q 232.801773 244.348081 122.162708 193.943768 
" clip-path="url(#pc0b341de7c)" style="fill: none; stroke: #ff7f0e; stroke-width: 2.812618; stroke-linecap: round"/>
    <path d="M 125.535784 198.117778 
L 122.162708 193.943768 
L 127.525762 193.749714 
" clip-path="url(#pc0b341de7c)" style="fill: none; stroke: #ff7f0e; stroke-width: 2.812618; stroke-linecap: round"/>
   </g>
   <g id="patch_40">
    <path d="M 362.718905 298.213747 
Q 492.193965 276.500285 618.571034 255.306367 
" clip-path="url(#pc0b341de7c)" style="fill: none; stroke: #ff7f0e; stroke-width: 2.809623; stroke-linecap: round"/>
    <path d="M 613.440196 253.733313 
L 618.571034 255.306367 
L 614.234088 258.467205 
" clip-path="url(#pc0b341de7c)" style="fill: none; stroke: #ff7f0e; stroke-width: 2.809623; stroke-linecap: round"/>
   </g>
   <g id="patch_41">
    <path d="M 362.771969 300.744803 
Q 493.467375 317.469124 621.049807 333.795095 
" clip-path="url(#pc0b341de7c)" style="fill: none; stroke: #ff7f0e; stroke-width: 2.807032; stroke-linecap: round"/>
    <path d="M 616.59326 330.805247 
L 621.049807 333.795095 
L 615.984 335.566424 
" clip-path="url(#pc0b341de7c)" style="fill: none; stroke: #ff7f0e; stroke-width: 2.807032; stroke-linecap: round"/>
   </g>
   <g id="patch_42">
    <path d="M 362.840531 299.527141 
Q 472.356928 298.029962 578.73603 296.575672 
" clip-path="url(#pc0b341de7c)" style="fill: none; stroke: #ff7f0e; stroke-width: 2.806344; stroke-linecap: round"/>
    <path d="M 573.903672 294.24151 
L 578.73603 296.575672 
L 573.969286 299.041062 
" clip-path="url(#pc0b341de7c)" style="fill: none; stroke: #ff7f0e; stroke-width: 2.806344; stroke-linecap: round"/>
   </g>
   <g id="patch_43">
    <path d="M 347.006735 304.500666 
Q 241.206694 376.096291 138.004813 445.933724 
" clip-path="url(#pc0b341de7c)" style="fill: none; stroke: #ff7f0e; stroke-width: 2.805947; stroke-linecap: round"/>
    <path d="M 143.325202 445.231256 
L 138.004813 445.933724 
L 140.635072 441.255932 
" clip-path="url(#pc0b341de7c)" style="fill: none; stroke: #ff7f0e; stroke-width: 2.805947; stroke-linecap: round"/>
   </g>
   <g id="patch_44">
    <path d="M 345.581955 298.58747 
Q 212.792115 282.249426 83.111909 266.293981 
" clip-path="url(#pc0b341de7c)" style="fill: none; stroke: #ff7f0e; stroke-width: 2.802314; stroke-linecap: round"/>
    <path d="M 87.582906 269.262176 
L 83.111909 266.293981 
L 88.169063 264.4981 
" clip-path="url(#pc0b341de7c)" style="fill: none; stroke: #ff7f0e; stroke-width: 2.802314; stroke-linecap: round"/>
   </g>
   <g id="patch_45">
    <path d="M 347.383242 310.026888 
Q 348.409771 308.459291 346.884108 310.789108 
" clip-path="url(#pc0b341de7c)" style="fill: none; stroke: #ff7f0e; stroke-width: 4.166872; stroke-linecap: round"/>
    <path d="M 342.246699 313.48993 
L 346.884108 310.789108 
L 346.26232 316.119529 
" clip-path="url(#pc0b341de7c)" style="fill: none; stroke: #ff7f0e; stroke-width: 4.166872; stroke-linecap: round"/>
   </g>
   <g id="patch_46">
    <path d="M 381.005091 302.704737 
Q 371.89414 301.665641 366.002427 300.993696 
" clip-path="url(#pc0b341de7c)" style="fill: none; stroke: #ff7f0e; stroke-width: 2.89804; stroke-linecap: round"/>
    <path d="M 370.499556 303.922148 
L 366.002427 300.993696 
L 371.043466 299.153064 
" clip-path="url(#pc0b341de7c)" style="fill: none; stroke: #ff7f0e; stroke-width: 2.89804; stroke-linecap: round"/>
   </g>
   <g id="patch_47">
    <path d="M 365.832017 316.945506 
Q 362.425151 311.886654 360.813865 309.494057 
" clip-path="url(#pc0b341de7c)" style="fill: none; stroke: #ff7f0e; stroke-width: 2.875139; stroke-linecap: round"/>
    <path d="M 361.504414 314.816006 
L 360.813865 309.494057 
L 365.485754 312.134787 
" clip-path="url(#pc0b341de7c)" style="fill: none; stroke: #ff7f0e; stroke-width: 2.875139; stroke-linecap: round"/>
   </g>
   <g id="patch_48">
    <path d="M 326.908513 303.799157 
Q 336.265259 302.374133 342.459417 301.430768 
" clip-path="url(#pc0b341de7c)" style="fill: none; stroke: #ff7f0e; stroke-width: 2.861322; stroke-linecap: round"/>
    <path d="M 337.352783 299.780829 
L 342.459417 301.430768 
L 338.075486 304.526111 
" clip-path="url(#pc0b341de7c)" style="fill: none; stroke: #ff7f0e; stroke-width: 2.861322; stroke-linecap: round"/>
   </g>
   <g id="patch_49">
    <path d="M 333.664668 286.374447 
Q 340.287777 290.658547 344.230429 293.208818 
" clip-path="url(#pc0b341de7c)" style="fill: none; stroke: #ff7f0e; stroke-width: 2.855313; stroke-linecap: round"/>
    <path d="M 341.503586 288.586661 
L 344.230429 293.208818 
L 338.896598 292.616998 
" clip-path="url(#pc0b341de7c)" style="fill: none; stroke: #ff7f0e; stroke-width: 2.855313; stroke-linecap: round"/>
   </g>
   <g id="patch_50">
    <path d="M 353.740977 279.311452 
Q 353.867374 285.147071 353.925223 287.817902 
" clip-path="url(#pc0b341de7c)" style="fill: none; stroke: #ff7f0e; stroke-width: 2.831336; stroke-linecap: round"/>
    <path d="M 356.220718 282.967057 
L 353.925223 287.817902 
L 351.421844 283.070998 
" clip-path="url(#pc0b341de7c)" style="fill: none; stroke: #ff7f0e; stroke-width: 2.831336; stroke-linecap: round"/>
   </g>
   <g id="patch_51">
    <path d="M 374.698888 285.063622 
Q 367.970345 289.845637 363.809488 292.802782 
" clip-path="url(#pc0b341de7c)" style="fill: none; stroke: #ff7f0e; stroke-width: 2.817539; stroke-linecap: round"/>
    <path d="M 369.112353 291.978388 
L 363.809488 292.802782 
L 366.331692 288.065854 
" clip-path="url(#pc0b341de7c)" style="fill: none; stroke: #ff7f0e; stroke-width: 2.817539; stroke-linecap: round"/>
   </g>
   <g id="PathCollection_1">
    <defs>
     <path id="me57be92a1b" d="M 0 11.18034 
C 2.965061 11.18034 5.80908 10.002309 7.905694 7.905694 
C 10.002309 5.80908 11.18034 2.965061 11.18034 0 
C 11.18034 -2.965061 10.002309 -5.80908 7.905694 -7.905694 
C 5.80908 -10.002309 2.965061 -11.18034 0 -11.18034 
C -2.965061 -11.18034 -5.80908 -10.002309 -7.905694 -7.905694 
C -10.002309 -5.80908 -11.18034 -2.965061 -11.18034 0 
C -11.18034 2.965061 -10.002309 5.80908 -7.905694 7.905694 
C -5.80908 10.002309 -2.965061 11.18034 0 11.18034 
z
" style="stroke: #1f77b4"/>
    </defs>
    <g clip-path="url(#pc0b341de7c)">
     <use xlink:href="#me57be92a1b" x="354.181403" y="299.645519" style="fill: #1f77b4; stroke: #1f77b4"/>
     <use xlink:href="#me57be92a1b" x="561.303672" y="160.547598" style="fill: #1f77b4; stroke: #1f77b4"/>
     <use xlink:href="#me57be92a1b" x="342.639324" y="317.271254" style="fill: #1f77b4; stroke: #1f77b4"/>
     <use xlink:href="#me57be92a1b" x="123.86129" y="157.429308" style="fill: #1f77b4; stroke: #1f77b4"/>
     <use xlink:href="#me57be92a1b" x="466.260605" y="111.498127" style="fill: #1f77b4; stroke: #1f77b4"/>
     <use xlink:href="#me57be92a1b" x="186.887935" y="102.817553" style="fill: #1f77b4; stroke: #1f77b4"/>
     <use xlink:href="#me57be92a1b" x="626.492942" y="390.511197" style="fill: #1f77b4; stroke: #1f77b4"/>
     <use xlink:href="#me57be92a1b" x="170.351379" y="466.990552" style="fill: #1f77b4; stroke: #1f77b4"/>
     <use xlink:href="#me57be92a1b" x="131.07473" y="219.164774" style="fill: #1f77b4; stroke: #1f77b4"/>
     <use xlink:href="#me57be92a1b" x="457.323668" y="486.97501" style="fill: #1f77b4; stroke: #1f77b4"/>
     <use xlink:href="#me57be92a1b" x="495.066285" y="491.947519" style="fill: #1f77b4; stroke: #1f77b4"/>
     <use xlink:href="#me57be92a1b" x="119.635057" y="388.159539" style="fill: #1f77b4; stroke: #1f77b4"/>
     <use xlink:href="#me57be92a1b" x="374.013231" y="89.423024" style="fill: #1f77b4; stroke: #1f77b4"/>
     <use xlink:href="#me57be92a1b" x="86.547219" y="294.768457" style="fill: #1f77b4; stroke: #1f77b4"/>
     <use xlink:href="#me57be92a1b" x="433.79449" y="517.317089" style="fill: #1f77b4; stroke: #1f77b4"/>
     <use xlink:href="#me57be92a1b" x="557.726807" y="450.499468" style="fill: #1f77b4; stroke: #1f77b4"/>
     <use xlink:href="#me57be92a1b" x="237.112118" y="87.347929" style="fill: #1f77b4; stroke: #1f77b4"/>
     <use xlink:href="#me57be92a1b" x="603.533063" y="159.274832" style="fill: #1f77b4; stroke: #1f77b4"/>
     <use xlink:href="#me57be92a1b" x="231.391061" y="498.736582" style="fill: #1f77b4; stroke: #1f77b4"/>
     <use xlink:href="#me57be92a1b" x="606.554348" y="377.829068" style="fill: #1f77b4; stroke: #1f77b4"/>
     <use xlink:href="#me57be92a1b" x="81.10167" y="328.981063" style="fill: #1f77b4; stroke: #1f77b4"/>
     <use xlink:href="#me57be92a1b" x="151.678083" y="128.714101" style="fill: #1f77b4; stroke: #1f77b4"/>
     <use xlink:href="#me57be92a1b" x="284.832352" y="103.746721" style="fill: #1f77b4; stroke: #1f77b4"/>
     <use xlink:href="#me57be92a1b" x="541.877965" y="196.815228" style="fill: #1f77b4; stroke: #1f77b4"/>
     <use xlink:href="#me57be92a1b" x="389.792985" y="512.081644" style="fill: #1f77b4; stroke: #1f77b4"/>
     <use xlink:href="#me57be92a1b" x="389.606142" y="303.685679" style="fill: #1f77b4; stroke: #1f77b4"/>
     <use xlink:href="#me57be92a1b" x="541.151486" y="110.767166" style="fill: #1f77b4; stroke: #1f77b4"/>
     <use xlink:href="#me57be92a1b" x="438.871342" y="85.446697" style="fill: #1f77b4; stroke: #1f77b4"/>
     <use xlink:href="#me57be92a1b" x="106.067336" y="414.698466" style="fill: #1f77b4; stroke: #1f77b4"/>
     <use xlink:href="#me57be92a1b" x="79.910497" y="364.653734" style="fill: #1f77b4; stroke: #1f77b4"/>
     <use xlink:href="#me57be92a1b" x="276.339404" y="496.944864" style="fill: #1f77b4; stroke: #1f77b4"/>
     <use xlink:href="#me57be92a1b" x="370.668158" y="324.126689" style="fill: #1f77b4; stroke: #1f77b4"/>
     <use xlink:href="#me57be92a1b" x="318.348282" y="305.102873" style="fill: #1f77b4; stroke: #1f77b4"/>
     <use xlink:href="#me57be92a1b" x="326.396134" y="281.672859" style="fill: #1f77b4; stroke: #1f77b4"/>
     <use xlink:href="#me57be92a1b" x="310.789354" y="73.593719" style="fill: #1f77b4; stroke: #1f77b4"/>
     <use xlink:href="#me57be92a1b" x="593.931948" y="429.507992" style="fill: #1f77b4; stroke: #1f77b4"/>
     <use xlink:href="#me57be92a1b" x="76.228728" y="223.637656" style="fill: #1f77b4; stroke: #1f77b4"/>
     <use xlink:href="#me57be92a1b" x="353.553384" y="270.650449" style="fill: #1f77b4; stroke: #1f77b4"/>
     <use xlink:href="#me57be92a1b" x="541.019556" y="481.940692" style="fill: #1f77b4; stroke: #1f77b4"/>
     <use xlink:href="#me57be92a1b" x="347.131645" y="517.83249" style="fill: #1f77b4; stroke: #1f77b4"/>
     <use xlink:href="#me57be92a1b" x="625.362695" y="214.121116" style="fill: #1f77b4; stroke: #1f77b4"/>
     <use xlink:href="#me57be92a1b" x="299.955371" y="518.486281" style="fill: #1f77b4; stroke: #1f77b4"/>
     <use xlink:href="#me57be92a1b" x="206.518818" y="469.565469" style="fill: #1f77b4; stroke: #1f77b4"/>
     <use xlink:href="#me57be92a1b" x="381.75798" y="280.046684" style="fill: #1f77b4; stroke: #1f77b4"/>
     <use xlink:href="#me57be92a1b" x="648.595041" y="296.155393" style="fill: #1f77b4; stroke: #1f77b4"/>
     <use xlink:href="#me57be92a1b" x="111.419807" y="189.049579" style="fill: #1f77b4; stroke: #1f77b4"/>
     <use xlink:href="#me57be92a1b" x="630.211853" y="253.354158" style="fill: #1f77b4; stroke: #1f77b4"/>
     <use xlink:href="#me57be92a1b" x="632.752083" y="335.292567" style="fill: #1f77b4; stroke: #1f77b4"/>
     <use xlink:href="#me57be92a1b" x="590.534854" y="296.414372" style="fill: #1f77b4; stroke: #1f77b4"/>
     <use xlink:href="#me57be92a1b" x="128.232807" y="452.546508" style="fill: #1f77b4; stroke: #1f77b4"/>
     <use xlink:href="#me57be92a1b" x="71.404959" y="264.853595" style="fill: #1f77b4; stroke: #1f77b4"/>
    </g>
   </g>
   <g id="text_1">
    <g clip-path="url(#pc0b341de7c)">
     <!-- IND -->
     <g transform="translate(346.022341 302.128956) scale(0.09 -0.09)">
      <defs>
       <path id="DejaVuSans-49" d="M 628 4666 
L 1259 4666 
L 1259 0 
L 628 0 
L 628 4666 
z
" transform="scale(0.015625)"/>
       <path id="DejaVuSans-4e" d="M 628 4666 
L 1478 4666 
L 3547 763 
L 3547 4666 
L 4159 4666 
L 4159 0 
L 3309 0 
L 1241 3903 
L 1241 0 
L 628 0 
L 628 4666 
z
" transform="scale(0.015625)"/>
       <path id="DejaVuSans-44" d="M 1259 4147 
L 1259 519 
L 2022 519 
Q 2988 519 3436 956 
Q 3884 1394 3884 2338 
Q 3884 3275 3436 3711 
Q 2988 4147 2022 4147 
L 1259 4147 
z
M 628 4666 
L 1925 4666 
Q 3281 4666 3915 4102 
Q 4550 3538 4550 2338 
Q 4550 1131 3912 565 
Q 3275 0 1925 0 
L 628 0 
L 628 4666 
z
" transform="scale(0.015625)"/>
      </defs>
      <use xlink:href="#DejaVuSans-49"/>
      <use xlink:href="#DejaVuSans-4e" transform="translate(29.492188 0)"/>
      <use xlink:href="#DejaVuSans-44" transform="translate(104.296875 0)"/>
     </g>
    </g>
   </g>
   <g id="text_2">
    <g clip-path="url(#pc0b341de7c)">
     <!-- BTN -->
     <g transform="translate(552.101172 163.031035) scale(0.09 -0.09)">
      <defs>
       <path id="DejaVuSans-42" d="M 1259 2228 
L 1259 519 
L 2272 519 
Q 2781 519 3026 730 
Q 3272 941 3272 1375 
Q 3272 1813 3026 2020 
Q 2781 2228 2272 2228 
L 1259 2228 
z
M 1259 4147 
L 1259 2741 
L 2194 2741 
Q 2656 2741 2882 2914 
Q 3109 3088 3109 3444 
Q 3109 3797 2882 3972 
Q 2656 4147 2194 4147 
L 1259 4147 
z
M 628 4666 
L 2241 4666 
Q 2963 4666 3353 4366 
Q 3744 4066 3744 3513 
Q 3744 3084 3544 2831 
Q 3344 2578 2956 2516 
Q 3422 2416 3680 2098 
Q 3938 1781 3938 1306 
Q 3938 681 3513 340 
Q 3088 0 2303 0 
L 628 0 
L 628 4666 
z
" transform="scale(0.015625)"/>
       <path id="DejaVuSans-54" d="M -19 4666 
L 3928 4666 
L 3928 4134 
L 2272 4134 
L 2272 0 
L 1638 0 
L 1638 4134 
L -19 4134 
L -19 4666 
z
" transform="scale(0.015625)"/>
      </defs>
      <use xlink:href="#DejaVuSans-42"/>
      <use xlink:href="#DejaVuSans-54" transform="translate(68.603516 0)"/>
      <use xlink:href="#DejaVuSans-4e" transform="translate(129.6875 0)"/>
     </g>
    </g>
   </g>
   <g id="text_3">
    <g clip-path="url(#pc0b341de7c)">
     <!-- CHN -->
     <g transform="translate(332.746355 319.754692) scale(0.09 -0.09)">
      <defs>
       <path id="DejaVuSans-43" d="M 4122 4306 
L 4122 3641 
Q 3803 3938 3442 4084 
Q 3081 4231 2675 4231 
Q 1875 4231 1450 3742 
Q 1025 3253 1025 2328 
Q 1025 1406 1450 917 
Q 1875 428 2675 428 
Q 3081 428 3442 575 
Q 3803 722 4122 1019 
L 4122 359 
Q 3791 134 3420 21 
Q 3050 -91 2638 -91 
Q 1578 -91 968 557 
Q 359 1206 359 2328 
Q 359 3453 968 4101 
Q 1578 4750 2638 4750 
Q 3056 4750 3426 4639 
Q 3797 4528 4122 4306 
z
" transform="scale(0.015625)"/>
       <path id="DejaVuSans-48" d="M 628 4666 
L 1259 4666 
L 1259 2753 
L 3553 2753 
L 3553 4666 
L 4184 4666 
L 4184 0 
L 3553 0 
L 3553 2222 
L 1259 2222 
L 1259 0 
L 628 0 
L 628 4666 
z
" transform="scale(0.015625)"/>
      </defs>
      <use xlink:href="#DejaVuSans-43"/>
      <use xlink:href="#DejaVuSans-48" transform="translate(69.824219 0)"/>
      <use xlink:href="#DejaVuSans-4e" transform="translate(145.019531 0)"/>
     </g>
    </g>
   </g>
   <g id="text_4">
    <g clip-path="url(#pc0b341de7c)">
     <!-- NPL -->
     <g transform="translate(115.274024 159.912746) scale(0.09 -0.09)">
      <defs>
       <path id="DejaVuSans-50" d="M 1259 4147 
L 1259 2394 
L 2053 2394 
Q 2494 2394 2734 2622 
Q 2975 2850 2975 3272 
Q 2975 3691 2734 3919 
Q 2494 4147 2053 4147 
L 1259 4147 
z
M 628 4666 
L 2053 4666 
Q 2838 4666 3239 4311 
Q 3641 3956 3641 3272 
Q 3641 2581 3239 2228 
Q 2838 1875 2053 1875 
L 1259 1875 
L 1259 0 
L 628 0 
L 628 4666 
z
" transform="scale(0.015625)"/>
       <path id="DejaVuSans-4c" d="M 628 4666 
L 1259 4666 
L 1259 531 
L 3531 531 
L 3531 0 
L 628 0 
L 628 4666 
z
" transform="scale(0.015625)"/>
      </defs>
      <use xlink:href="#DejaVuSans-4e"/>
      <use xlink:href="#DejaVuSans-50" transform="translate(74.804688 0)"/>
      <use xlink:href="#DejaVuSans-4c" transform="translate(135.107422 0)"/>
     </g>
    </g>
   </g>
   <g id="text_5">
    <g clip-path="url(#pc0b341de7c)">
     <!-- ASM -->
     <g transform="translate(456.442871 113.981565) scale(0.09 -0.09)">
      <defs>
       <path id="DejaVuSans-41" d="M 2188 4044 
L 1331 1722 
L 3047 1722 
L 2188 4044 
z
M 1831 4666 
L 2547 4666 
L 4325 0 
L 3669 0 
L 3244 1197 
L 1141 1197 
L 716 0 
L 50 0 
L 1831 4666 
z
" transform="scale(0.015625)"/>
       <path id="DejaVuSans-53" d="M 3425 4513 
L 3425 3897 
Q 3066 4069 2747 4153 
Q 2428 4238 2131 4238 
Q 1616 4238 1336 4038 
Q 1056 3838 1056 3469 
Q 1056 3159 1242 3001 
Q 1428 2844 1947 2747 
L 2328 2669 
Q 3034 2534 3370 2195 
Q 3706 1856 3706 1288 
Q 3706 609 3251 259 
Q 2797 -91 1919 -91 
Q 1588 -91 1214 -16 
Q 841 59 441 206 
L 441 856 
Q 825 641 1194 531 
Q 1563 422 1919 422 
Q 2459 422 2753 634 
Q 3047 847 3047 1241 
Q 3047 1584 2836 1778 
Q 2625 1972 2144 2069 
L 1759 2144 
Q 1053 2284 737 2584 
Q 422 2884 422 3419 
Q 422 4038 858 4394 
Q 1294 4750 2059 4750 
Q 2388 4750 2728 4690 
Q 3069 4631 3425 4513 
z
" transform="scale(0.015625)"/>
       <path id="DejaVuSans-4d" d="M 628 4666 
L 1569 4666 
L 2759 1491 
L 3956 4666 
L 4897 4666 
L 4897 0 
L 4281 0 
L 4281 4097 
L 3078 897 
L 2444 897 
L 1241 4097 
L 1241 0 
L 628 0 
L 628 4666 
z
" transform="scale(0.015625)"/>
      </defs>
      <use xlink:href="#DejaVuSans-41"/>
      <use xlink:href="#DejaVuSans-53" transform="translate(68.408203 0)"/>
      <use xlink:href="#DejaVuSans-4d" transform="translate(131.884766 0)"/>
     </g>
    </g>
   </g>
   <g id="text_6">
    <g clip-path="url(#pc0b341de7c)">
     <!-- MWI -->
     <g transform="translate(177.228404 105.300991) scale(0.09 -0.09)">
      <defs>
       <path id="DejaVuSans-57" d="M 213 4666 
L 850 4666 
L 1831 722 
L 2809 4666 
L 3519 4666 
L 4500 722 
L 5478 4666 
L 6119 4666 
L 4947 0 
L 4153 0 
L 3169 4050 
L 2175 0 
L 1381 0 
L 213 4666 
z
" transform="scale(0.015625)"/>
      </defs>
      <use xlink:href="#DejaVuSans-4d"/>
      <use xlink:href="#DejaVuSans-57" transform="translate(86.279297 0)"/>
      <use xlink:href="#DejaVuSans-49" transform="translate(185.15625 0)"/>
     </g>
    </g>
   </g>
   <g id="text_7">
    <g clip-path="url(#pc0b341de7c)">
     <!-- MDV -->
     <g transform="translate(616.145755 392.994635) scale(0.09 -0.09)">
      <defs>
       <path id="DejaVuSans-56" d="M 1831 0 
L 50 4666 
L 709 4666 
L 2188 738 
L 3669 4666 
L 4325 4666 
L 2547 0 
L 1831 0 
z
" transform="scale(0.015625)"/>
      </defs>
      <use xlink:href="#DejaVuSans-4d"/>
      <use xlink:href="#DejaVuSans-44" transform="translate(86.279297 0)"/>
      <use xlink:href="#DejaVuSans-56" transform="translate(161.53125 0)"/>
     </g>
    </g>
   </g>
   <g id="text_8">
    <g clip-path="url(#pc0b341de7c)">
     <!-- LKA -->
     <g transform="translate(161.893488 469.47399) scale(0.09 -0.09)">
      <defs>
       <path id="DejaVuSans-4b" d="M 628 4666 
L 1259 4666 
L 1259 2694 
L 3353 4666 
L 4166 4666 
L 1850 2491 
L 4331 0 
L 3500 0 
L 1259 2247 
L 1259 0 
L 628 0 
L 628 4666 
z
" transform="scale(0.015625)"/>
      </defs>
      <use xlink:href="#DejaVuSans-4c"/>
      <use xlink:href="#DejaVuSans-4b" transform="translate(55.712891 0)"/>
      <use xlink:href="#DejaVuSans-41" transform="translate(119.539062 0)"/>
     </g>
    </g>
   </g>
   <g id="text_9">
    <g clip-path="url(#pc0b341de7c)">
     <!-- CYM -->
     <g transform="translate(121.380042 221.648211) scale(0.09 -0.09)">
      <defs>
       <path id="DejaVuSans-59" d="M -13 4666 
L 666 4666 
L 1959 2747 
L 3244 4666 
L 3922 4666 
L 2272 2222 
L 2272 0 
L 1638 0 
L 1638 2222 
L -13 4666 
z
" transform="scale(0.015625)"/>
      </defs>
      <use xlink:href="#DejaVuSans-43"/>
      <use xlink:href="#DejaVuSans-59" transform="translate(68.074219 0)"/>
      <use xlink:href="#DejaVuSans-4d" transform="translate(129.158203 0)"/>
     </g>
    </g>
   </g>
   <g id="text_10">
    <g clip-path="url(#pc0b341de7c)">
     <!-- UGA -->
     <g transform="translate(447.465153 489.458448) scale(0.09 -0.09)">
      <defs>
       <path id="DejaVuSans-55" d="M 556 4666 
L 1191 4666 
L 1191 1831 
Q 1191 1081 1462 751 
Q 1734 422 2344 422 
Q 2950 422 3222 751 
Q 3494 1081 3494 1831 
L 3494 4666 
L 4128 4666 
L 4128 1753 
Q 4128 841 3676 375 
Q 3225 -91 2344 -91 
Q 1459 -91 1007 375 
Q 556 841 556 1753 
L 556 4666 
z
" transform="scale(0.015625)"/>
       <path id="DejaVuSans-47" d="M 3809 666 
L 3809 1919 
L 2778 1919 
L 2778 2438 
L 4434 2438 
L 4434 434 
Q 4069 175 3628 42 
Q 3188 -91 2688 -91 
Q 1594 -91 976 548 
Q 359 1188 359 2328 
Q 359 3472 976 4111 
Q 1594 4750 2688 4750 
Q 3144 4750 3555 4637 
Q 3966 4525 4313 4306 
L 4313 3634 
Q 3963 3931 3569 4081 
Q 3175 4231 2741 4231 
Q 1884 4231 1454 3753 
Q 1025 3275 1025 2328 
Q 1025 1384 1454 906 
Q 1884 428 2741 428 
Q 3075 428 3337 486 
Q 3600 544 3809 666 
z
" transform="scale(0.015625)"/>
      </defs>
      <use xlink:href="#DejaVuSans-55"/>
      <use xlink:href="#DejaVuSans-47" transform="translate(73.193359 0)"/>
      <use xlink:href="#DejaVuSans-41" transform="translate(150.683594 0)"/>
     </g>
    </g>
   </g>
   <g id="text_11">
    <g clip-path="url(#pc0b341de7c)">
     <!-- SOM -->
     <g transform="translate(484.784489 494.430957) scale(0.09 -0.09)">
      <defs>
       <path id="DejaVuSans-4f" d="M 2522 4238 
Q 1834 4238 1429 3725 
Q 1025 3213 1025 2328 
Q 1025 1447 1429 934 
Q 1834 422 2522 422 
Q 3209 422 3611 934 
Q 4013 1447 4013 2328 
Q 4013 3213 3611 3725 
Q 3209 4238 2522 4238 
z
M 2522 4750 
Q 3503 4750 4090 4092 
Q 4678 3434 4678 2328 
Q 4678 1225 4090 567 
Q 3503 -91 2522 -91 
Q 1538 -91 948 565 
Q 359 1222 359 2328 
Q 359 3434 948 4092 
Q 1538 4750 2522 4750 
z
" transform="scale(0.015625)"/>
      </defs>
      <use xlink:href="#DejaVuSans-53"/>
      <use xlink:href="#DejaVuSans-4f" transform="translate(63.476562 0)"/>
      <use xlink:href="#DejaVuSans-4d" transform="translate(142.1875 0)"/>
     </g>
    </g>
   </g>
   <g id="text_12">
    <g clip-path="url(#pc0b341de7c)">
     <!-- BGD -->
     <g transform="translate(109.674588 390.642976) scale(0.09 -0.09)">
      <use xlink:href="#DejaVuSans-42"/>
      <use xlink:href="#DejaVuSans-47" transform="translate(66.853516 0)"/>
      <use xlink:href="#DejaVuSans-44" transform="translate(144.34375 0)"/>
     </g>
    </g>
   </g>
   <g id="text_13">
    <g clip-path="url(#pc0b341de7c)">
     <!-- GMB -->
     <g transform="translate(363.556356 91.906461) scale(0.09 -0.09)">
      <use xlink:href="#DejaVuSans-47"/>
      <use xlink:href="#DejaVuSans-4d" transform="translate(77.490234 0)"/>
      <use xlink:href="#DejaVuSans-42" transform="translate(163.769531 0)"/>
     </g>
    </g>
   </g>
   <g id="text_14">
    <g clip-path="url(#pc0b341de7c)">
     <!-- OMN -->
     <g transform="translate(75.755657 297.251895) scale(0.09 -0.09)">
      <use xlink:href="#DejaVuSans-4f"/>
      <use xlink:href="#DejaVuSans-4d" transform="translate(78.710938 0)"/>
      <use xlink:href="#DejaVuSans-4e" transform="translate(164.990234 0)"/>
     </g>
    </g>
   </g>
   <g id="text_15">
    <g clip-path="url(#pc0b341de7c)">
     <!-- KWT -->
     <g transform="translate(423.808709 519.800527) scale(0.09 -0.09)">
      <use xlink:href="#DejaVuSans-4b"/>
      <use xlink:href="#DejaVuSans-57" transform="translate(61.951172 0)"/>
      <use xlink:href="#DejaVuSans-54" transform="translate(160.828125 0)"/>
     </g>
    </g>
   </g>
   <g id="text_16">
    <g clip-path="url(#pc0b341de7c)">
     <!-- TZA -->
     <g transform="translate(548.817511 452.982906) scale(0.09 -0.09)">
      <defs>
       <path id="DejaVuSans-5a" d="M 359 4666 
L 4025 4666 
L 4025 4184 
L 1075 531 
L 4097 531 
L 4097 0 
L 288 0 
L 288 481 
L 3238 4134 
L 359 4134 
L 359 4666 
z
" transform="scale(0.015625)"/>
      </defs>
      <use xlink:href="#DejaVuSans-54"/>
      <use xlink:href="#DejaVuSans-5a" transform="translate(61.083984 0)"/>
      <use xlink:href="#DejaVuSans-41" transform="translate(129.589844 0)"/>
     </g>
    </g>
   </g>
   <g id="text_17">
    <g clip-path="url(#pc0b341de7c)">
     <!-- KEN -->
     <g transform="translate(227.951102 89.831366) scale(0.09 -0.09)">
      <defs>
       <path id="DejaVuSans-45" d="M 628 4666 
L 3578 4666 
L 3578 4134 
L 1259 4134 
L 1259 2753 
L 3481 2753 
L 3481 2222 
L 1259 2222 
L 1259 531 
L 3634 531 
L 3634 0 
L 628 0 
L 628 4666 
z
" transform="scale(0.015625)"/>
      </defs>
      <use xlink:href="#DejaVuSans-4b"/>
      <use xlink:href="#DejaVuSans-45" transform="translate(65.576172 0)"/>
      <use xlink:href="#DejaVuSans-4e" transform="translate(128.759766 0)"/>
     </g>
    </g>
   </g>
   <g id="text_18">
    <g clip-path="url(#pc0b341de7c)">
     <!-- MUS -->
     <g transform="translate(593.500172 161.75827) scale(0.09 -0.09)">
      <use xlink:href="#DejaVuSans-4d"/>
      <use xlink:href="#DejaVuSans-55" transform="translate(86.279297 0)"/>
      <use xlink:href="#DejaVuSans-53" transform="translate(159.472656 0)"/>
     </g>
    </g>
   </g>
   <g id="text_19">
    <g clip-path="url(#pc0b341de7c)">
     <!-- NGA -->
     <g transform="translate(221.45942 501.22002) scale(0.09 -0.09)">
      <use xlink:href="#DejaVuSans-4e"/>
      <use xlink:href="#DejaVuSans-47" transform="translate(74.804688 0)"/>
      <use xlink:href="#DejaVuSans-41" transform="translate(152.294922 0)"/>
     </g>
    </g>
   </g>
   <g id="text_20">
    <g clip-path="url(#pc0b341de7c)">
     <!-- PRK -->
     <g transform="translate(597.763176 380.312505) scale(0.09 -0.09)">
      <defs>
       <path id="DejaVuSans-52" d="M 2841 2188 
Q 3044 2119 3236 1894 
Q 3428 1669 3622 1275 
L 4263 0 
L 3584 0 
L 2988 1197 
Q 2756 1666 2539 1819 
Q 2322 1972 1947 1972 
L 1259 1972 
L 1259 0 
L 628 0 
L 628 4666 
L 2053 4666 
Q 2853 4666 3247 4331 
Q 3641 3997 3641 3322 
Q 3641 2881 3436 2590 
Q 3231 2300 2841 2188 
z
M 1259 4147 
L 1259 2491 
L 2053 2491 
Q 2509 2491 2742 2702 
Q 2975 2913 2975 3322 
Q 2975 3731 2742 3939 
Q 2509 4147 2053 4147 
L 1259 4147 
z
" transform="scale(0.015625)"/>
      </defs>
      <use xlink:href="#DejaVuSans-50"/>
      <use xlink:href="#DejaVuSans-52" transform="translate(60.302734 0)"/>
      <use xlink:href="#DejaVuSans-4b" transform="translate(129.785156 0)"/>
     </g>
    </g>
   </g>
   <g id="text_21">
    <g clip-path="url(#pc0b341de7c)">
     <!-- GHA -->
     <g transform="translate(71.152451 331.4645) scale(0.09 -0.09)">
      <use xlink:href="#DejaVuSans-47"/>
      <use xlink:href="#DejaVuSans-48" transform="translate(77.490234 0)"/>
      <use xlink:href="#DejaVuSans-41" transform="translate(152.685547 0)"/>
     </g>
    </g>
   </g>
   <g id="text_22">
    <g clip-path="url(#pc0b341de7c)">
     <!-- BEN -->
     <g transform="translate(142.380662 131.197539) scale(0.09 -0.09)">
      <use xlink:href="#DejaVuSans-42"/>
      <use xlink:href="#DejaVuSans-45" transform="translate(68.603516 0)"/>
      <use xlink:href="#DejaVuSans-4e" transform="translate(131.787109 0)"/>
     </g>
    </g>
   </g>
   <g id="text_23">
    <g clip-path="url(#pc0b341de7c)">
     <!-- ARE -->
     <g transform="translate(275.783836 106.230158) scale(0.09 -0.09)">
      <use xlink:href="#DejaVuSans-41"/>
      <use xlink:href="#DejaVuSans-52" transform="translate(68.408203 0)"/>
      <use xlink:href="#DejaVuSans-45" transform="translate(137.890625 0)"/>
     </g>
    </g>
   </g>
   <g id="text_24">
    <g clip-path="url(#pc0b341de7c)">
     <!-- SLE -->
     <g transform="translate(533.670387 199.298666) scale(0.09 -0.09)">
      <use xlink:href="#DejaVuSans-53"/>
      <use xlink:href="#DejaVuSans-4c" transform="translate(63.476562 0)"/>
      <use xlink:href="#DejaVuSans-45" transform="translate(119.189453 0)"/>
     </g>
    </g>
   </g>
   <g id="text_25">
    <g clip-path="url(#pc0b341de7c)">
     <!-- DJI -->
     <g transform="translate(383.672985 514.565081) scale(0.09 -0.09)">
      <defs>
       <path id="DejaVuSans-4a" d="M 628 4666 
L 1259 4666 
L 1259 325 
Q 1259 -519 939 -900 
Q 619 -1281 -91 -1281 
L -331 -1281 
L -331 -750 
L -134 -750 
Q 284 -750 456 -515 
Q 628 -281 628 325 
L 628 4666 
z
" transform="scale(0.015625)"/>
      </defs>
      <use xlink:href="#DejaVuSans-44"/>
      <use xlink:href="#DejaVuSans-4a" transform="translate(77.001953 0)"/>
      <use xlink:href="#DejaVuSans-49" transform="translate(106.494141 0)"/>
     </g>
    </g>
   </g>
   <g id="text_26">
    <g clip-path="url(#pc0b341de7c)">
     <!-- DEU -->
     <g transform="translate(380.004267 306.169117) scale(0.09 -0.09)">
      <use xlink:href="#DejaVuSans-44"/>
      <use xlink:href="#DejaVuSans-45" transform="translate(77.001953 0)"/>
      <use xlink:href="#DejaVuSans-55" transform="translate(140.185547 0)"/>
     </g>
    </g>
   </g>
   <g id="text_27">
    <g clip-path="url(#pc0b341de7c)">
     <!-- SEN -->
     <g transform="translate(532.084689 113.250603) scale(0.09 -0.09)">
      <use xlink:href="#DejaVuSans-53"/>
      <use xlink:href="#DejaVuSans-45" transform="translate(63.476562 0)"/>
      <use xlink:href="#DejaVuSans-4e" transform="translate(126.660156 0)"/>
     </g>
    </g>
   </g>
   <g id="text_28">
    <g clip-path="url(#pc0b341de7c)">
     <!-- SAU -->
     <g transform="translate(429.558451 87.930135) scale(0.09 -0.09)">
      <use xlink:href="#DejaVuSans-53"/>
      <use xlink:href="#DejaVuSans-41" transform="translate(65.351562 0)"/>
      <use xlink:href="#DejaVuSans-55" transform="translate(133.759766 0)"/>
     </g>
    </g>
   </g>
   <g id="text_29">
    <g clip-path="url(#pc0b341de7c)">
     <!-- SDN -->
     <g transform="translate(96.378977 417.181903) scale(0.09 -0.09)">
      <use xlink:href="#DejaVuSans-53"/>
      <use xlink:href="#DejaVuSans-44" transform="translate(63.476562 0)"/>
      <use xlink:href="#DejaVuSans-4e" transform="translate(140.478516 0)"/>
     </g>
    </g>
   </g>
   <g id="text_30">
    <g clip-path="url(#pc0b341de7c)">
     <!-- YEM -->
     <g transform="translate(70.435887 367.137172) scale(0.09 -0.09)">
      <use xlink:href="#DejaVuSans-59"/>
      <use xlink:href="#DejaVuSans-45" transform="translate(61.083984 0)"/>
      <use xlink:href="#DejaVuSans-4d" transform="translate(124.267578 0)"/>
     </g>
    </g>
   </g>
   <g id="text_31">
    <g clip-path="url(#pc0b341de7c)">
     <!-- ZMB -->
     <g transform="translate(266.286826 499.428302) scale(0.09 -0.09)">
      <use xlink:href="#DejaVuSans-5a"/>
      <use xlink:href="#DejaVuSans-4d" transform="translate(68.505859 0)"/>
      <use xlink:href="#DejaVuSans-42" transform="translate(154.785156 0)"/>
     </g>
    </g>
   </g>
   <g id="text_32">
    <g clip-path="url(#pc0b341de7c)">
     <!-- USA -->
     <g transform="translate(361.355268 326.610127) scale(0.09 -0.09)">
      <use xlink:href="#DejaVuSans-55"/>
      <use xlink:href="#DejaVuSans-53" transform="translate(73.193359 0)"/>
      <use xlink:href="#DejaVuSans-41" transform="translate(138.544922 0)"/>
     </g>
    </g>
   </g>
   <g id="text_33">
    <g clip-path="url(#pc0b341de7c)">
     <!-- KOR -->
     <g transform="translate(308.975625 307.586311) scale(0.09 -0.09)">
      <use xlink:href="#DejaVuSans-4b"/>
      <use xlink:href="#DejaVuSans-4f" transform="translate(60.076172 0)"/>
      <use xlink:href="#DejaVuSans-52" transform="translate(138.787109 0)"/>
     </g>
    </g>
   </g>
   <g id="text_34">
    <g clip-path="url(#pc0b341de7c)">
     <!-- S19 -->
     <g transform="translate(317.813087 284.156296) scale(0.09 -0.09)">
      <defs>
       <path id="DejaVuSans-31" d="M 794 531 
L 1825 531 
L 1825 4091 
L 703 3866 
L 703 4441 
L 1819 4666 
L 2450 4666 
L 2450 531 
L 3481 531 
L 3481 0 
L 794 0 
L 794 531 
z
" transform="scale(0.015625)"/>
       <path id="DejaVuSans-39" d="M 703 97 
L 703 672 
Q 941 559 1184 500 
Q 1428 441 1663 441 
Q 2288 441 2617 861 
Q 2947 1281 2994 2138 
Q 2813 1869 2534 1725 
Q 2256 1581 1919 1581 
Q 1219 1581 811 2004 
Q 403 2428 403 3163 
Q 403 3881 828 4315 
Q 1253 4750 1959 4750 
Q 2769 4750 3195 4129 
Q 3622 3509 3622 2328 
Q 3622 1225 3098 567 
Q 2575 -91 1691 -91 
Q 1453 -91 1209 -44 
Q 966 3 703 97 
z
M 1959 2075 
Q 2384 2075 2632 2365 
Q 2881 2656 2881 3163 
Q 2881 3666 2632 3958 
Q 2384 4250 1959 4250 
Q 1534 4250 1286 3958 
Q 1038 3666 1038 3163 
Q 1038 2656 1286 2365 
Q 1534 2075 1959 2075 
z
" transform="scale(0.015625)"/>
      </defs>
      <use xlink:href="#DejaVuSans-53"/>
      <use xlink:href="#DejaVuSans-31" transform="translate(63.476562 0)"/>
      <use xlink:href="#DejaVuSans-39" transform="translate(127.099609 0)"/>
     </g>
    </g>
   </g>
   <g id="text_35">
    <g clip-path="url(#pc0b341de7c)">
     <!-- BDI -->
     <g transform="translate(302.909432 76.077157) scale(0.09 -0.09)">
      <use xlink:href="#DejaVuSans-42"/>
      <use xlink:href="#DejaVuSans-44" transform="translate(68.603516 0)"/>
      <use xlink:href="#DejaVuSans-49" transform="translate(145.605469 0)"/>
     </g>
    </g>
   </g>
   <g id="text_36">
    <g clip-path="url(#pc0b341de7c)">
     <!-- RWA -->
     <g transform="translate(583.704994 431.99143) scale(0.09 -0.09)">
      <use xlink:href="#DejaVuSans-52"/>
      <use xlink:href="#DejaVuSans-57" transform="translate(65.482422 0)"/>
      <use xlink:href="#DejaVuSans-41" transform="translate(158.859375 0)"/>
     </g>
    </g>
   </g>
   <g id="text_37">
    <g clip-path="url(#pc0b341de7c)">
     <!-- MOZ -->
     <g transform="translate(65.721228 226.121093) scale(0.09 -0.09)">
      <use xlink:href="#DejaVuSans-4d"/>
      <use xlink:href="#DejaVuSans-4f" transform="translate(86.279297 0)"/>
      <use xlink:href="#DejaVuSans-5a" transform="translate(164.990234 0)"/>
     </g>
    </g>
   </g>
   <g id="text_38">
    <g clip-path="url(#pc0b341de7c)">
     <!-- JPN -->
     <g transform="translate(346.145962 273.133887) scale(0.09 -0.09)">
      <use xlink:href="#DejaVuSans-4a"/>
      <use xlink:href="#DejaVuSans-50" transform="translate(29.492188 0)"/>
      <use xlink:href="#DejaVuSans-4e" transform="translate(89.794922 0)"/>
     </g>
    </g>
   </g>
   <g id="text_39">
    <g clip-path="url(#pc0b341de7c)">
     <!-- BFA -->
     <g transform="translate(532.676275 484.42413) scale(0.09 -0.09)">
      <defs>
       <path id="DejaVuSans-46" d="M 628 4666 
L 3309 4666 
L 3309 4134 
L 1259 4134 
L 1259 2759 
L 3109 2759 
L 3109 2228 
L 1259 2228 
L 1259 0 
L 628 0 
L 628 4666 
z
" transform="scale(0.015625)"/>
      </defs>
      <use xlink:href="#DejaVuSans-42"/>
      <use xlink:href="#DejaVuSans-46" transform="translate(68.603516 0)"/>
      <use xlink:href="#DejaVuSans-41" transform="translate(116.998047 0)"/>
     </g>
    </g>
   </g>
   <g id="text_40">
    <g clip-path="url(#pc0b341de7c)">
     <!-- GNQ -->
     <g transform="translate(336.735942 520.315927) scale(0.09 -0.09)">
      <defs>
       <path id="DejaVuSans-51" d="M 2522 4238 
Q 1834 4238 1429 3725 
Q 1025 3213 1025 2328 
Q 1025 1447 1429 934 
Q 1834 422 2522 422 
Q 3209 422 3611 934 
Q 4013 1447 4013 2328 
Q 4013 3213 3611 3725 
Q 3209 4238 2522 4238 
z
M 3406 84 
L 4238 -825 
L 3475 -825 
L 2784 -78 
Q 2681 -84 2626 -87 
Q 2572 -91 2522 -91 
Q 1538 -91 948 567 
Q 359 1225 359 2328 
Q 359 3434 948 4092 
Q 1538 4750 2522 4750 
Q 3503 4750 4090 4092 
Q 4678 3434 4678 2328 
Q 4678 1516 4351 937 
Q 4025 359 3406 84 
z
" transform="scale(0.015625)"/>
      </defs>
      <use xlink:href="#DejaVuSans-47"/>
      <use xlink:href="#DejaVuSans-4e" transform="translate(77.490234 0)"/>
      <use xlink:href="#DejaVuSans-51" transform="translate(152.294922 0)"/>
     </g>
    </g>
   </g>
   <g id="text_41">
    <g clip-path="url(#pc0b341de7c)">
     <!-- SUR -->
     <g transform="translate(616.085664 216.604554) scale(0.09 -0.09)">
      <use xlink:href="#DejaVuSans-53"/>
      <use xlink:href="#DejaVuSans-55" transform="translate(63.476562 0)"/>
      <use xlink:href="#DejaVuSans-52" transform="translate(136.669922 0)"/>
     </g>
    </g>
   </g>
   <g id="text_42">
    <g clip-path="url(#pc0b341de7c)">
     <!-- SYC -->
     <g transform="translate(291.455293 520.969718) scale(0.09 -0.09)">
      <use xlink:href="#DejaVuSans-53"/>
      <use xlink:href="#DejaVuSans-59" transform="translate(63.476562 0)"/>
      <use xlink:href="#DejaVuSans-43" transform="translate(119.060547 0)"/>
     </g>
    </g>
   </g>
   <g id="text_43">
    <g clip-path="url(#pc0b341de7c)">
     <!-- LBN -->
     <g transform="translate(197.55749 472.048907) scale(0.09 -0.09)">
      <use xlink:href="#DejaVuSans-4c"/>
      <use xlink:href="#DejaVuSans-42" transform="translate(55.712891 0)"/>
      <use xlink:href="#DejaVuSans-4e" transform="translate(124.316406 0)"/>
     </g>
    </g>
   </g>
   <g id="text_44">
    <g clip-path="url(#pc0b341de7c)">
     <!-- VNM -->
     <g transform="translate(371.43048 282.530121) scale(0.09 -0.09)">
      <use xlink:href="#DejaVuSans-56"/>
      <use xlink:href="#DejaVuSans-4e" transform="translate(68.408203 0)"/>
      <use xlink:href="#DejaVuSans-4d" transform="translate(143.212891 0)"/>
     </g>
    </g>
   </g>
   <g id="text_45">
    <g clip-path="url(#pc0b341de7c)">
     <!-- ZAF -->
     <g transform="translate(639.846057 298.63883) scale(0.09 -0.09)">
      <use xlink:href="#DejaVuSans-5a"/>
      <use xlink:href="#DejaVuSans-41" transform="translate(68.505859 0)"/>
      <use xlink:href="#DejaVuSans-46" transform="translate(136.914062 0)"/>
     </g>
    </g>
   </g>
   <g id="text_46">
    <g clip-path="url(#pc0b341de7c)">
     <!-- AFG -->
     <g transform="translate(102.266526 191.533016) scale(0.09 -0.09)">
      <use xlink:href="#DejaVuSans-41"/>
      <use xlink:href="#DejaVuSans-46" transform="translate(68.408203 0)"/>
      <use xlink:href="#DejaVuSans-47" transform="translate(125.927734 0)"/>
     </g>
    </g>
   </g>
   <g id="text_47">
    <g clip-path="url(#pc0b341de7c)">
     <!-- MDG -->
     <g transform="translate(619.3774 255.837595) scale(0.09 -0.09)">
      <use xlink:href="#DejaVuSans-4d"/>
      <use xlink:href="#DejaVuSans-44" transform="translate(86.279297 0)"/>
      <use xlink:href="#DejaVuSans-47" transform="translate(163.28125 0)"/>
     </g>
    </g>
   </g>
   <g id="text_48">
    <g clip-path="url(#pc0b341de7c)">
     <!-- MMR -->
     <g transform="translate(621.859974 337.776004) scale(0.09 -0.09)">
      <use xlink:href="#DejaVuSans-4d"/>
      <use xlink:href="#DejaVuSans-4d" transform="translate(86.279297 0)"/>
      <use xlink:href="#DejaVuSans-52" transform="translate(172.558594 0)"/>
     </g>
    </g>
   </g>
   <g id="text_49">
    <g clip-path="url(#pc0b341de7c)">
     <!-- BHR -->
     <g transform="translate(580.936494 298.89781) scale(0.09 -0.09)">
      <use xlink:href="#DejaVuSans-42"/>
      <use xlink:href="#DejaVuSans-48" transform="translate(68.603516 0)"/>
      <use xlink:href="#DejaVuSans-52" transform="translate(143.798828 0)"/>
     </g>
    </g>
   </g>
   <g id="text_50">
    <g clip-path="url(#pc0b341de7c)">
     <!-- TGO -->
     <g transform="translate(118.455151 455.029945) scale(0.09 -0.09)">
      <use xlink:href="#DejaVuSans-54"/>
      <use xlink:href="#DejaVuSans-47" transform="translate(61.083984 0)"/>
      <use xlink:href="#DejaVuSans-4f" transform="translate(138.574219 0)"/>
     </g>
    </g>
   </g>
   <g id="text_51">
    <g clip-path="url(#pc0b341de7c)">
     <!-- JOR -->
     <g transform="translate(63.408318 267.337032) scale(0.09 -0.09)">
      <use xlink:href="#DejaVuSans-4a"/>
      <use xlink:href="#DejaVuSans-4f" transform="translate(29.492188 0)"/>
      <use xlink:href="#DejaVuSans-52" transform="translate(108.203125 0)"/>
     </g>
    </g>
   </g>
   <g id="text_52">
    <!-- Coercion exposure network – sector=machinery_hightech, year=2024 (focus IND) -->
    <g transform="translate(113.566875 20.88) scale(0.12 -0.12)">
     <defs>
      <path id="DejaVuSans-6f" d="M 1959 3097 
Q 1497 3097 1228 2736 
Q 959 2375 959 1747 
Q 959 1119 1226 758 
Q 1494 397 1959 397 
Q 2419 397 2687 759 
Q 2956 1122 2956 1747 
Q 2956 2369 2687 2733 
Q 2419 3097 1959 3097 
z
M 1959 3584 
Q 2709 3584 3137 3096 
Q 3566 2609 3566 1747 
Q 3566 888 3137 398 
Q 2709 -91 1959 -91 
Q 1206 -91 779 398 
Q 353 888 353 1747 
Q 353 2609 779 3096 
Q 1206 3584 1959 3584 
z
" transform="scale(0.015625)"/>
      <path id="DejaVuSans-65" d="M 3597 1894 
L 3597 1613 
L 953 1613 
Q 991 1019 1311 708 
Q 1631 397 2203 397 
Q 2534 397 2845 478 
Q 3156 559 3463 722 
L 3463 178 
Q 3153 47 2828 -22 
Q 2503 -91 2169 -91 
Q 1331 -91 842 396 
Q 353 884 353 1716 
Q 353 2575 817 3079 
Q 1281 3584 2069 3584 
Q 2775 3584 3186 3129 
Q 3597 2675 3597 1894 
z
M 3022 2063 
Q 3016 2534 2758 2815 
Q 2500 3097 2075 3097 
Q 1594 3097 1305 2825 
Q 1016 2553 972 2059 
L 3022 2063 
z
" transform="scale(0.015625)"/>
      <path id="DejaVuSans-72" d="M 2631 2963 
Q 2534 3019 2420 3045 
Q 2306 3072 2169 3072 
Q 1681 3072 1420 2755 
Q 1159 2438 1159 1844 
L 1159 0 
L 581 0 
L 581 3500 
L 1159 3500 
L 1159 2956 
Q 1341 3275 1631 3429 
Q 1922 3584 2338 3584 
Q 2397 3584 2469 3576 
Q 2541 3569 2628 3553 
L 2631 2963 
z
" transform="scale(0.015625)"/>
      <path id="DejaVuSans-63" d="M 3122 3366 
L 3122 2828 
Q 2878 2963 2633 3030 
Q 2388 3097 2138 3097 
Q 1578 3097 1268 2742 
Q 959 2388 959 1747 
Q 959 1106 1268 751 
Q 1578 397 2138 397 
Q 2388 397 2633 464 
Q 2878 531 3122 666 
L 3122 134 
Q 2881 22 2623 -34 
Q 2366 -91 2075 -91 
Q 1284 -91 818 406 
Q 353 903 353 1747 
Q 353 2603 823 3093 
Q 1294 3584 2113 3584 
Q 2378 3584 2631 3529 
Q 2884 3475 3122 3366 
z
" transform="scale(0.015625)"/>
      <path id="DejaVuSans-69" d="M 603 3500 
L 1178 3500 
L 1178 0 
L 603 0 
L 603 3500 
z
M 603 4863 
L 1178 4863 
L 1178 4134 
L 603 4134 
L 603 4863 
z
" transform="scale(0.015625)"/>
      <path id="DejaVuSans-6e" d="M 3513 2113 
L 3513 0 
L 2938 0 
L 2938 2094 
Q 2938 2591 2744 2837 
Q 2550 3084 2163 3084 
Q 1697 3084 1428 2787 
Q 1159 2491 1159 1978 
L 1159 0 
L 581 0 
L 581 3500 
L 1159 3500 
L 1159 2956 
Q 1366 3272 1645 3428 
Q 1925 3584 2291 3584 
Q 2894 3584 3203 3211 
Q 3513 2838 3513 2113 
z
" transform="scale(0.015625)"/>
      <path id="DejaVuSans-20" transform="scale(0.015625)"/>
      <path id="DejaVuSans-78" d="M 3513 3500 
L 2247 1797 
L 3578 0 
L 2900 0 
L 1881 1375 
L 863 0 
L 184 0 
L 1544 1831 
L 300 3500 
L 978 3500 
L 1906 2253 
L 2834 3500 
L 3513 3500 
z
" transform="scale(0.015625)"/>
      <path id="DejaVuSans-70" d="M 1159 525 
L 1159 -1331 
L 581 -1331 
L 581 3500 
L 1159 3500 
L 1159 2969 
Q 1341 3281 1617 3432 
Q 1894 3584 2278 3584 
Q 2916 3584 3314 3078 
Q 3713 2572 3713 1747 
Q 3713 922 3314 415 
Q 2916 -91 2278 -91 
Q 1894 -91 1617 61 
Q 1341 213 1159 525 
z
M 3116 1747 
Q 3116 2381 2855 2742 
Q 2594 3103 2138 3103 
Q 1681 3103 1420 2742 
Q 1159 2381 1159 1747 
Q 1159 1113 1420 752 
Q 1681 391 2138 391 
Q 2594 391 2855 752 
Q 3116 1113 3116 1747 
z
" transform="scale(0.015625)"/>
      <path id="DejaVuSans-73" d="M 2834 3397 
L 2834 2853 
Q 2591 2978 2328 3040 
Q 2066 3103 1784 3103 
Q 1356 3103 1142 2972 
Q 928 2841 928 2578 
Q 928 2378 1081 2264 
Q 1234 2150 1697 2047 
L 1894 2003 
Q 2506 1872 2764 1633 
Q 3022 1394 3022 966 
Q 3022 478 2636 193 
Q 2250 -91 1575 -91 
Q 1294 -91 989 -36 
Q 684 19 347 128 
L 347 722 
Q 666 556 975 473 
Q 1284 391 1588 391 
Q 1994 391 2212 530 
Q 2431 669 2431 922 
Q 2431 1156 2273 1281 
Q 2116 1406 1581 1522 
L 1381 1569 
Q 847 1681 609 1914 
Q 372 2147 372 2553 
Q 372 3047 722 3315 
Q 1072 3584 1716 3584 
Q 2034 3584 2315 3537 
Q 2597 3491 2834 3397 
z
" transform="scale(0.015625)"/>
      <path id="DejaVuSans-75" d="M 544 1381 
L 544 3500 
L 1119 3500 
L 1119 1403 
Q 1119 906 1312 657 
Q 1506 409 1894 409 
Q 2359 409 2629 706 
Q 2900 1003 2900 1516 
L 2900 3500 
L 3475 3500 
L 3475 0 
L 2900 0 
L 2900 538 
Q 2691 219 2414 64 
Q 2138 -91 1772 -91 
Q 1169 -91 856 284 
Q 544 659 544 1381 
z
M 1991 3584 
L 1991 3584 
z
" transform="scale(0.015625)"/>
      <path id="DejaVuSans-74" d="M 1172 4494 
L 1172 3500 
L 2356 3500 
L 2356 3053 
L 1172 3053 
L 1172 1153 
Q 1172 725 1289 603 
Q 1406 481 1766 481 
L 2356 481 
L 2356 0 
L 1766 0 
Q 1100 0 847 248 
Q 594 497 594 1153 
L 594 3053 
L 172 3053 
L 172 3500 
L 594 3500 
L 594 4494 
L 1172 4494 
z
" transform="scale(0.015625)"/>
      <path id="DejaVuSans-77" d="M 269 3500 
L 844 3500 
L 1563 769 
L 2278 3500 
L 2956 3500 
L 3675 769 
L 4391 3500 
L 4966 3500 
L 4050 0 
L 3372 0 
L 2619 2869 
L 1863 0 
L 1184 0 
L 269 3500 
z
" transform="scale(0.015625)"/>
      <path id="DejaVuSans-6b" d="M 581 4863 
L 1159 4863 
L 1159 1991 
L 2875 3500 
L 3609 3500 
L 1753 1863 
L 3688 0 
L 2938 0 
L 1159 1709 
L 1159 0 
L 581 0 
L 581 4863 
z
" transform="scale(0.015625)"/>
      <path id="DejaVuSans-2013" d="M 313 1978 
L 2888 1978 
L 2888 1528 
L 313 1528 
L 313 1978 
z
" transform="scale(0.015625)"/>
      <path id="DejaVuSans-3d" d="M 678 2906 
L 4684 2906 
L 4684 2381 
L 678 2381 
L 678 2906 
z
M 678 1631 
L 4684 1631 
L 4684 1100 
L 678 1100 
L 678 1631 
z
" transform="scale(0.015625)"/>
      <path id="DejaVuSans-6d" d="M 3328 2828 
Q 3544 3216 3844 3400 
Q 4144 3584 4550 3584 
Q 5097 3584 5394 3201 
Q 5691 2819 5691 2113 
L 5691 0 
L 5113 0 
L 5113 2094 
Q 5113 2597 4934 2840 
Q 4756 3084 4391 3084 
Q 3944 3084 3684 2787 
Q 3425 2491 3425 1978 
L 3425 0 
L 2847 0 
L 2847 2094 
Q 2847 2600 2669 2842 
Q 2491 3084 2119 3084 
Q 1678 3084 1418 2786 
Q 1159 2488 1159 1978 
L 1159 0 
L 581 0 
L 581 3500 
L 1159 3500 
L 1159 2956 
Q 1356 3278 1631 3431 
Q 1906 3584 2284 3584 
Q 2666 3584 2933 3390 
Q 3200 3197 3328 2828 
z
" transform="scale(0.015625)"/>
      <path id="DejaVuSans-61" d="M 2194 1759 
Q 1497 1759 1228 1600 
Q 959 1441 959 1056 
Q 959 750 1161 570 
Q 1363 391 1709 391 
Q 2188 391 2477 730 
Q 2766 1069 2766 1631 
L 2766 1759 
L 2194 1759 
z
M 3341 1997 
L 3341 0 
L 2766 0 
L 2766 531 
Q 2569 213 2275 61 
Q 1981 -91 1556 -91 
Q 1019 -91 701 211 
Q 384 513 384 1019 
Q 384 1609 779 1909 
Q 1175 2209 1959 2209 
L 2766 2209 
L 2766 2266 
Q 2766 2663 2505 2880 
Q 2244 3097 1772 3097 
Q 1472 3097 1187 3025 
Q 903 2953 641 2809 
L 641 3341 
Q 956 3463 1253 3523 
Q 1550 3584 1831 3584 
Q 2591 3584 2966 3190 
Q 3341 2797 3341 1997 
z
" transform="scale(0.015625)"/>
      <path id="DejaVuSans-68" d="M 3513 2113 
L 3513 0 
L 2938 0 
L 2938 2094 
Q 2938 2591 2744 2837 
Q 2550 3084 2163 3084 
Q 1697 3084 1428 2787 
Q 1159 2491 1159 1978 
L 1159 0 
L 581 0 
L 581 4863 
L 1159 4863 
L 1159 2956 
Q 1366 3272 1645 3428 
Q 1925 3584 2291 3584 
Q 2894 3584 3203 3211 
Q 3513 2838 3513 2113 
z
" transform="scale(0.015625)"/>
      <path id="DejaVuSans-79" d="M 2059 -325 
Q 1816 -950 1584 -1140 
Q 1353 -1331 966 -1331 
L 506 -1331 
L 506 -850 
L 844 -850 
Q 1081 -850 1212 -737 
Q 1344 -625 1503 -206 
L 1606 56 
L 191 3500 
L 800 3500 
L 1894 763 
L 2988 3500 
L 3597 3500 
L 2059 -325 
z
" transform="scale(0.015625)"/>
      <path id="DejaVuSans-5f" d="M 3263 -1063 
L 3263 -1509 
L -63 -1509 
L -63 -1063 
L 3263 -1063 
z
" transform="scale(0.015625)"/>
      <path id="DejaVuSans-67" d="M 2906 1791 
Q 2906 2416 2648 2759 
Q 2391 3103 1925 3103 
Q 1463 3103 1205 2759 
Q 947 2416 947 1791 
Q 947 1169 1205 825 
Q 1463 481 1925 481 
Q 2391 481 2648 825 
Q 2906 1169 2906 1791 
z
M 3481 434 
Q 3481 -459 3084 -895 
Q 2688 -1331 1869 -1331 
Q 1566 -1331 1297 -1286 
Q 1028 -1241 775 -1147 
L 775 -588 
Q 1028 -725 1275 -790 
Q 1522 -856 1778 -856 
Q 2344 -856 2625 -561 
Q 2906 -266 2906 331 
L 2906 616 
Q 2728 306 2450 153 
Q 2172 0 1784 0 
Q 1141 0 747 490 
Q 353 981 353 1791 
Q 353 2603 747 3093 
Q 1141 3584 1784 3584 
Q 2172 3584 2450 3431 
Q 2728 3278 2906 2969 
L 2906 3500 
L 3481 3500 
L 3481 434 
z
" transform="scale(0.015625)"/>
      <path id="DejaVuSans-2c" d="M 750 794 
L 1409 794 
L 1409 256 
L 897 -744 
L 494 -744 
L 750 256 
L 750 794 
z
" transform="scale(0.015625)"/>
      <path id="DejaVuSans-32" d="M 1228 531 
L 3431 531 
L 3431 0 
L 469 0 
L 469 531 
Q 828 903 1448 1529 
Q 2069 2156 2228 2338 
Q 2531 2678 2651 2914 
Q 2772 3150 2772 3378 
Q 2772 3750 2511 3984 
Q 2250 4219 1831 4219 
Q 1534 4219 1204 4116 
Q 875 4013 500 3803 
L 500 4441 
Q 881 4594 1212 4672 
Q 1544 4750 1819 4750 
Q 2544 4750 2975 4387 
Q 3406 4025 3406 3419 
Q 3406 3131 3298 2873 
Q 3191 2616 2906 2266 
Q 2828 2175 2409 1742 
Q 1991 1309 1228 531 
z
" transform="scale(0.015625)"/>
      <path id="DejaVuSans-30" d="M 2034 4250 
Q 1547 4250 1301 3770 
Q 1056 3291 1056 2328 
Q 1056 1369 1301 889 
Q 1547 409 2034 409 
Q 2525 409 2770 889 
Q 3016 1369 3016 2328 
Q 3016 3291 2770 3770 
Q 2525 4250 2034 4250 
z
M 2034 4750 
Q 2819 4750 3233 4129 
Q 3647 3509 3647 2328 
Q 3647 1150 3233 529 
Q 2819 -91 2034 -91 
Q 1250 -91 836 529 
Q 422 1150 422 2328 
Q 422 3509 836 4129 
Q 1250 4750 2034 4750 
z
" transform="scale(0.015625)"/>
      <path id="DejaVuSans-34" d="M 2419 4116 
L 825 1625 
L 2419 1625 
L 2419 4116 
z
M 2253 4666 
L 3047 4666 
L 3047 1625 
L 3713 1625 
L 3713 1100 
L 3047 1100 
L 3047 0 
L 2419 0 
L 2419 1100 
L 313 1100 
L 313 1709 
L 2253 4666 
z
" transform="scale(0.015625)"/>
      <path id="DejaVuSans-28" d="M 1984 4856 
Q 1566 4138 1362 3434 
Q 1159 2731 1159 2009 
Q 1159 1288 1364 580 
Q 1569 -128 1984 -844 
L 1484 -844 
Q 1016 -109 783 600 
Q 550 1309 550 2009 
Q 550 2706 781 3412 
Q 1013 4119 1484 4856 
L 1984 4856 
z
" transform="scale(0.015625)"/>
      <path id="DejaVuSans-66" d="M 2375 4863 
L 2375 4384 
L 1825 4384 
Q 1516 4384 1395 4259 
Q 1275 4134 1275 3809 
L 1275 3500 
L 2222 3500 
L 2222 3053 
L 1275 3053 
L 1275 0 
L 697 0 
L 697 3053 
L 147 3053 
L 147 3500 
L 697 3500 
L 697 3744 
Q 697 4328 969 4595 
Q 1241 4863 1831 4863 
L 2375 4863 
z
" transform="scale(0.015625)"/>
      <path id="DejaVuSans-29" d="M 513 4856 
L 1013 4856 
Q 1481 4119 1714 3412 
Q 1947 2706 1947 2009 
Q 1947 1309 1714 600 
Q 1481 -109 1013 -844 
L 513 -844 
Q 928 -128 1133 580 
Q 1338 1288 1338 2009 
Q 1338 2731 1133 3434 
Q 928 4138 513 4856 
z
" transform="scale(0.015625)"/>
     </defs>
     <use xlink:href="#DejaVuSans-43"/>
     <use xlink:href="#DejaVuSans-6f" transform="translate(69.824219 0)"/>
     <use xlink:href="#DejaVuSans-65" transform="translate(131.005859 0)"/>
     <use xlink:href="#DejaVuSans-72" transform="translate(192.529297 0)"/>
     <use xlink:href="#DejaVuSans-63" transform="translate(231.392578 0)"/>
     <use xlink:href="#DejaVuSans-69" transform="translate(286.373047 0)"/>
     <use xlink:href="#DejaVuSans-6f" transform="translate(314.15625 0)"/>
     <use xlink:href="#DejaVuSans-6e" transform="translate(375.337891 0)"/>
     <use xlink:href="#DejaVuSans-20" transform="translate(438.716797 0)"/>
     <use xlink:href="#DejaVuSans-65" transform="translate(470.503906 0)"/>
     <use xlink:href="#DejaVuSans-78" transform="translate(530.277344 0)"/>
     <use xlink:href="#DejaVuSans-70" transform="translate(589.457031 0)"/>
     <use xlink:href="#DejaVuSans-6f" transform="translate(652.933594 0)"/>
     <use xlink:href="#DejaVuSans-73" transform="translate(714.115234 0)"/>
     <use xlink:href="#DejaVuSans-75" transform="translate(766.214844 0)"/>
     <use xlink:href="#DejaVuSans-72" transform="translate(829.59375 0)"/>
     <use xlink:href="#DejaVuSans-65" transform="translate(868.457031 0)"/>
     <use xlink:href="#DejaVuSans-20" transform="translate(929.980469 0)"/>
     <use xlink:href="#DejaVuSans-6e" transform="translate(961.767578 0)"/>
     <use xlink:href="#DejaVuSans-65" transform="translate(1025.146484 0)"/>
     <use xlink:href="#DejaVuSans-74" transform="translate(1086.669922 0)"/>
     <use xlink:href="#DejaVuSans-77" transform="translate(1125.878906 0)"/>
     <use xlink:href="#DejaVuSans-6f" transform="translate(1207.666016 0)"/>
     <use xlink:href="#DejaVuSans-72" transform="translate(1268.847656 0)"/>
     <use xlink:href="#DejaVuSans-6b" transform="translate(1309.960938 0)"/>
     <use xlink:href="#DejaVuSans-20" transform="translate(1367.871094 0)"/>
     <use xlink:href="#DejaVuSans-2013" transform="translate(1399.658203 0)"/>
     <use xlink:href="#DejaVuSans-20" transform="translate(1449.658203 0)"/>
     <use xlink:href="#DejaVuSans-73" transform="translate(1481.445312 0)"/>
     <use xlink:href="#DejaVuSans-65" transform="translate(1533.544922 0)"/>
     <use xlink:href="#DejaVuSans-63" transform="translate(1595.068359 0)"/>
     <use xlink:href="#DejaVuSans-74" transform="translate(1650.048828 0)"/>
     <use xlink:href="#DejaVuSans-6f" transform="translate(1689.257812 0)"/>
     <use xlink:href="#DejaVuSans-72" transform="translate(1750.439453 0)"/>
     <use xlink:href="#DejaVuSans-3d" transform="translate(1791.552734 0)"/>
     <use xlink:href="#DejaVuSans-6d" transform="translate(1875.341797 0)"/>
     <use xlink:href="#DejaVuSans-61" transform="translate(1972.753906 0)"/>
     <use xlink:href="#DejaVuSans-63" transform="translate(2034.033203 0)"/>
     <use xlink:href="#DejaVuSans-68" transform="translate(2089.013672 0)"/>
     <use xlink:href="#DejaVuSans-69" transform="translate(2152.392578 0)"/>
     <use xlink:href="#DejaVuSans-6e" transform="translate(2180.175781 0)"/>
     <use xlink:href="#DejaVuSans-65" transform="translate(2243.554688 0)"/>
     <use xlink:href="#DejaVuSans-72" transform="translate(2305.078125 0)"/>
     <use xlink:href="#DejaVuSans-79" transform="translate(2346.191406 0)"/>
     <use xlink:href="#DejaVuSans-5f" transform="translate(2405.371094 0)"/>
     <use xlink:href="#DejaVuSans-68" transform="translate(2455.371094 0)"/>
     <use xlink:href="#DejaVuSans-69" transform="translate(2518.75 0)"/>
     <use xlink:href="#DejaVuSans-67" transform="translate(2546.533203 0)"/>
     <use xlink:href="#DejaVuSans-68" transform="translate(2610.009766 0)"/>
     <use xlink:href="#DejaVuSans-74" transform="translate(2673.388672 0)"/>
     <use xlink:href="#DejaVuSans-65" transform="translate(2712.597656 0)"/>
     <use xlink:href="#DejaVuSans-63" transform="translate(2774.121094 0)"/>
     <use xlink:href="#DejaVuSans-68" transform="translate(2829.101562 0)"/>
     <use xlink:href="#DejaVuSans-2c" transform="translate(2892.480469 0)"/>
     <use xlink:href="#DejaVuSans-20" transform="translate(2924.267578 0)"/>
     <use xlink:href="#DejaVuSans-79" transform="translate(2956.054688 0)"/>
     <use xlink:href="#DejaVuSans-65" transform="translate(3015.234375 0)"/>
     <use xlink:href="#DejaVuSans-61" transform="translate(3076.757812 0)"/>
     <use xlink:href="#DejaVuSans-72" transform="translate(3138.037109 0)"/>
     <use xlink:href="#DejaVuSans-3d" transform="translate(3179.150391 0)"/>
     <use xlink:href="#DejaVuSans-32" transform="translate(3262.939453 0)"/>
     <use xlink:href="#DejaVuSans-30" transform="translate(3326.5625 0)"/>
     <use xlink:href="#DejaVuSans-32" transform="translate(3390.185547 0)"/>
     <use xlink:href="#DejaVuSans-34" transform="translate(3453.808594 0)"/>
     <use xlink:href="#DejaVuSans-20" transform="translate(3517.431641 0)"/>
     <use xlink:href="#DejaVuSans-28" transform="translate(3549.21875 0)"/>
     <use xlink:href="#DejaVuSans-66" transform="translate(3588.232422 0)"/>
     <use xlink:href="#DejaVuSans-6f" transform="translate(3623.4375 0)"/>
     <use xlink:href="#DejaVuSans-63" transform="translate(3684.619141 0)"/>
     <use xlink:href="#DejaVuSans-75" transform="translate(3739.599609 0)"/>
     <use xlink:href="#DejaVuSans-73" transform="translate(3802.978516 0)"/>
     <use xlink:href="#DejaVuSans-20" transform="translate(3855.078125 0)"/>
     <use xlink:href="#DejaVuSans-49" transform="translate(3886.865234 0)"/>
     <use xlink:href="#DejaVuSans-4e" transform="translate(3916.357422 0)"/>
     <use xlink:href="#DejaVuSans-44" transform="translate(3991.162109 0)"/>
     <use xlink:href="#DejaVuSans-29" transform="translate(4068.164062 0)"/>
    </g>
   </g>
  </g>
 </g>
 <defs>
  <clipPath id="pc0b341de7c">
   <rect x="10.8" y="26.88" width="698.4" height="538.32"/>
  </clipPath>
 </defs>
</svg>
