<?xml version="1.0" encoding="utf-8" standalone="no"?>
<!DOCTYPE svg PUBLIC "-//W3C//DTD SVG 1.1//EN"
  "http://www.w3.org/Graphics/SVG/1.1/DTD/svg11.dtd">
<svg xmlns:xlink="http://www.w3.org/1999/xlink" width="720pt" height="576pt" viewBox="0 0 720 576" xmlns="http://www.w3.org/2000/svg" version="1.1">
 <metadata>
  <rdf:RDF xmlns:dc="http://purl.org/dc/elements/1.1/" xmlns:cc="http://creativecommons.org/ns#" xmlns:rdf="http://www.w3.org/1999/02/22-rdf-syntax-ns#">
   <cc:Work>
    <dc:type rdf:resource="http://purl.org/dc/dcmitype/StillImage"/>
    <dc:date>2026-03-06T15:11:51.388542</dc:date>
    <dc:format>image/svg+xml</dc:format>
    <dc:creator>
     <cc:Agent>
      <dc:title>Matplotlib v3.10.0, https://matplotlib.org/</dc:title>
     </cc:Agent>
    </dc:creator>
   </cc:Work>
  </rdf:RDF>
 </metadata>
 <defs>
  <style type="text/css">*{stroke-linejoin: round; stroke-linecap: butt}</style>
 </defs>
 <g id="figure_1">
  <g id="patch_1">
   <path d="M 0 576 
L 720 576 
L 720 0 
L 0 0 
z
" style="fill: #ffffff"/>
  </g>
  <g id="axes_1">
   <g id="patch_2">
    <path d="M 361.012208 291.61902 
Q 450.640691 220.027423 535.901342 151.924673 
" clip-path="url(#p99a9e758b7)" style="fill: none; stroke: #ff7f0e; stroke-width: 5; stroke-linecap: round"/>
    <path d="M 530.653054 153.045152 
L 535.901342 151.924673 
L 533.648753 156.79559 
" clip-path="url(#p99a9e758b7)" style="fill: none; stroke: #ff7f0e; stroke-width: 5; stroke-linecap: round"/>
   </g>
   <g id="patch_3">
    <path d="M 347.526511 302.496814 
Q 254.426024 378.330487 165.654928 450.637717 
" clip-path="url(#p99a9e758b7)" style="fill: none; stroke: #ff7f0e; stroke-width: 4.994351; stroke-linecap: round"/>
    <path d="M 170.892268 449.467129 
L 165.654928 450.637717 
L 167.860862 445.745493 
" clip-path="url(#p99a9e758b7)" style="fill: none; stroke: #ff7f0e; stroke-width: 4.994351; stroke-linecap: round"/>
   </g>
   <g id="patch_4">
    <path d="M 346.465171 293.223107 
Q 226.999494 234.816892 112.172547 178.678531 
" clip-path="url(#p99a9e758b7)" style="fill: none; stroke: #ff7f0e; stroke-width: 4.61831; stroke-linecap: round"/>
    <path d="M 115.430665 182.942879 
L 112.172547 178.678531 
L 117.538897 178.630645 
" clip-path="url(#p99a9e758b7)" style="fill: none; stroke: #ff7f0e; stroke-width: 4.61831; stroke-linecap: round"/>
   </g>
   <g id="patch_5">
    <path d="M 357.811912 289.134711 
Q 399.655432 196.609498 439.615064 108.249973 
" clip-path="url(#p99a9e758b7)" style="fill: none; stroke: #ff7f0e; stroke-width: 4.089205; stroke-linecap: round"/>
    <path d="M 435.450398 111.634579 
L 439.615064 108.249973 
L 439.823949 113.61247 
" clip-path="url(#p99a9e758b7)" style="fill: none; stroke: #ff7f0e; stroke-width: 4.089205; stroke-linecap: round"/>
   </g>
   <g id="patch_6">
    <path d="M 348.068376 290.953077 
Q 257.475491 201.859352 170.089975 115.919918 
" clip-path="url(#p99a9e758b7)" style="fill: none; stroke: #ff7f0e; stroke-width: 4.023607; stroke-linecap: round"/>
    <path d="M 171.829447 120.996751 
L 170.089975 115.919918 
L 175.195125 117.57444 
" clip-path="url(#p99a9e758b7)" style="fill: none; stroke: #ff7f0e; stroke-width: 4.023607; stroke-linecap: round"/>
   </g>
   <g id="patch_7">
    <path d="M 362.210125 300.426967 
Q 484.057719 352.44574 601.913252 402.760235 
" clip-path="url(#p99a9e758b7)" style="fill: none; stroke: #ff7f0e; stroke-width: 3.882382; stroke-linecap: round"/>
    <path d="M 598.441035 398.668327 
L 601.913252 402.760235 
L 596.556395 403.082864 
" clip-path="url(#p99a9e758b7)" style="fill: none; stroke: #ff7f0e; stroke-width: 3.882382; stroke-linecap: round"/>
   </g>
   <g id="patch_8">
    <path d="M 346.341784 300.566938 
Q 231.243221 352.149969 119.834546 402.079325 
" clip-path="url(#p99a9e758b7)" style="fill: none; stroke: #ff7f0e; stroke-width: 3.616619; stroke-linecap: round"/>
    <path d="M 125.196304 402.306378 
L 119.834546 402.079325 
L 123.233244 397.92615 
" clip-path="url(#p99a9e758b7)" style="fill: none; stroke: #ff7f0e; stroke-width: 3.616619; stroke-linecap: round"/>
   </g>
   <g id="patch_9">
    <path d="M 345.669485 295.820977 
Q 228.317744 279.330495 114.959244 263.40115 
" clip-path="url(#p99a9e758b7)" style="fill: none; stroke: #ff7f0e; stroke-width: 3.606754; stroke-linecap: round"/>
    <path d="M 119.378572 266.445742 
L 114.959244 263.40115 
L 120.046514 261.692443 
" clip-path="url(#p99a9e758b7)" style="fill: none; stroke: #ff7f0e; stroke-width: 3.606754; stroke-linecap: round"/>
   </g>
   <g id="patch_10">
    <path d="M 357.335381 305.11443 
Q 391.507734 394.505624 424.244875 480.142458 
" clip-path="url(#p99a9e758b7)" style="fill: none; stroke: #ff7f0e; stroke-width: 3.595002; stroke-linecap: round"/>
    <path d="M 424.772685 474.801913 
L 424.244875 480.142458 
L 420.289125 476.515883 
" clip-path="url(#p99a9e758b7)" style="fill: none; stroke: #ff7f0e; stroke-width: 3.595002; stroke-linecap: round"/>
   </g>
   <g id="patch_11">
    <path d="M 358.70246 304.448134 
Q 414.300229 396.99085 467.875596 486.16727 
" clip-path="url(#p99a9e758b7)" style="fill: none; stroke: #ff7f0e; stroke-width: 3.512498; stroke-linecap: round"/>
    <path d="M 467.460934 480.816751 
L 467.875596 486.16727 
L 463.346384 483.288689 
" clip-path="url(#p99a9e758b7)" style="fill: none; stroke: #ff7f0e; stroke-width: 3.512498; stroke-linecap: round"/>
   </g>
   <g id="patch_12">
    <path d="M 345.911357 299.376841 
Q 229.97349 332.091697 117.78644 363.748162 
" clip-path="url(#p99a9e758b7)" style="fill: none; stroke: #ff7f0e; stroke-width: 3.485836; stroke-linecap: round"/>
    <path d="M 123.057819 364.754425 
L 117.78644 363.748162 
L 121.754277 360.134817 
" clip-path="url(#p99a9e758b7)" style="fill: none; stroke: #ff7f0e; stroke-width: 3.485836; stroke-linecap: round"/>
   </g>
   <g id="patch_13">
    <path d="M 354.067361 288.366622 
Q 352.052492 189.179545 350.110899 93.599688 
" clip-path="url(#p99a9e758b7)" style="fill: none; stroke: #ff7f0e; stroke-width: 3.227062; stroke-linecap: round"/>
    <path d="M 347.80888 98.447441 
L 350.110899 93.599688 
L 352.60789 98.349955 
" clip-path="url(#p99a9e758b7)" style="fill: none; stroke: #ff7f0e; stroke-width: 3.227062; stroke-linecap: round"/>
   </g>
   <g id="patch_14">
    <path d="M 345.58894 297.256858 
Q 218.104029 300.66082 94.196255 303.969269 
" clip-path="url(#p99a9e758b7)" style="fill: none; stroke: #ff7f0e; stroke-width: 3.200629; stroke-linecap: round"/>
    <path d="M 99.058604 306.240295 
L 94.196255 303.969269 
L 98.930485 301.442005 
" clip-path="url(#p99a9e758b7)" style="fill: none; stroke: #ff7f0e; stroke-width: 3.200629; stroke-linecap: round"/>
   </g>
   <g id="patch_15">
    <path d="M 356.324369 305.429898 
Q 381.663378 407.756195 406.15603 506.664659 
" clip-path="url(#p99a9e758b7)" style="fill: none; stroke: #ff7f0e; stroke-width: 3.149336; stroke-linecap: round"/>
    <path d="M 407.331893 501.428501 
L 406.15603 506.664659 
L 402.672622 502.582274 
" clip-path="url(#p99a9e758b7)" style="fill: none; stroke: #ff7f0e; stroke-width: 3.149336; stroke-linecap: round"/>
   </g>
   <g id="patch_16">
    <path d="M 360.751551 302.744428 
Q 447.170347 378.678151 530.949252 452.292279 
" clip-path="url(#p99a9e758b7)" style="fill: none; stroke: #ff7f0e; stroke-width: 3.143189; stroke-linecap: round"/>
    <path d="M 528.927609 447.321066 
L 530.949252 452.292279 
L 525.759296 450.926866 
" clip-path="url(#p99a9e758b7)" style="fill: none; stroke: #ff7f0e; stroke-width: 3.143189; stroke-linecap: round"/>
   </g>
   <g id="patch_17">
    <path d="M 350.706068 289.124355 
Q 304.519229 185.951661 259.7651 85.979371 
" clip-path="url(#p99a9e758b7)" style="fill: none; stroke: #ff7f0e; stroke-width: 3.136271; stroke-linecap: round"/>
    <path d="M 259.535819 91.341034 
L 259.7651 85.979371 
L 263.916862 89.379794 
" clip-path="url(#p99a9e758b7)" style="fill: none; stroke: #ff7f0e; stroke-width: 3.136271; stroke-linecap: round"/>
   </g>
   <g id="patch_18">
    <path d="M 361.121406 291.762601 
Q 464.34733 212.773777 564.78957 135.915038 
" clip-path="url(#p99a9e758b7)" style="fill: none; stroke: #ff7f0e; stroke-width: 3.135112; stroke-linecap: round"/>
    <path d="M 559.519089 136.925994 
L 564.78957 135.915038 
L 562.436046 140.737997 
" clip-path="url(#p99a9e758b7)" style="fill: none; stroke: #ff7f0e; stroke-width: 3.135112; stroke-linecap: round"/>
   </g>
   <g id="patch_19">
    <path d="M 348.650128 303.633868 
Q 276.021855 389.441591 205.649168 472.584419 
" clip-path="url(#p99a9e758b7)" style="fill: none; stroke: #ff7f0e; stroke-width: 3.122734; stroke-linecap: round"/>
    <path d="M 210.582129 470.471155 
L 205.649168 472.584419 
L 206.918333 467.370091 
" clip-path="url(#p99a9e758b7)" style="fill: none; stroke: #ff7f0e; stroke-width: 3.122734; stroke-linecap: round"/>
   </g>
   <g id="patch_20">
    <path d="M 362.34065 300.107092 
Q 476.125824 343.405949 586.664146 385.469275 
" clip-path="url(#p99a9e758b7)" style="fill: none; stroke: #ff7f0e; stroke-width: 3.107228; stroke-linecap: round"/>
    <path d="M 583.031542 381.519062 
L 586.664146 385.469275 
L 581.324413 386.005231 
" clip-path="url(#p99a9e758b7)" style="fill: none; stroke: #ff7f0e; stroke-width: 3.107228; stroke-linecap: round"/>
   </g>
   <g id="patch_21">
    <path d="M 347.125584 292.096085 
Q 239.746541 217.725489 135.196742 145.314424 
" clip-path="url(#p99a9e758b7)" style="fill: none; stroke: #ff7f0e; stroke-width: 3.07823; stroke-linecap: round"/>
    <path d="M 137.776235 150.020401 
L 135.196742 145.314424 
L 140.509219 146.074416 
" clip-path="url(#p99a9e758b7)" style="fill: none; stroke: #ff7f0e; stroke-width: 3.07823; stroke-linecap: round"/>
   </g>
   <g id="patch_22">
    <path d="M 351.600748 288.779371 
Q 321.96947 196.310008 293.377708 107.084627 
" clip-path="url(#p99a9e758b7)" style="fill: none; stroke: #ff7f0e; stroke-width: 3.046836; stroke-linecap: round"/>
    <path d="M 292.55695 112.388056 
L 293.377708 107.084627 
L 297.127996 110.923291 
" clip-path="url(#p99a9e758b7)" style="fill: none; stroke: #ff7f0e; stroke-width: 3.046836; stroke-linecap: round"/>
   </g>
   <g id="patch_23">
    <path d="M 354.476998 305.685398 
Q 357.119404 403.582922 359.670217 498.087118 
" clip-path="url(#p99a9e758b7)" style="fill: none; stroke: #ff7f0e; stroke-width: 3.03619; stroke-linecap: round"/>
    <path d="M 361.939831 493.224109 
L 359.670217 498.087118 
L 357.141579 493.353621 
" clip-path="url(#p99a9e758b7)" style="fill: none; stroke: #ff7f0e; stroke-width: 3.03619; stroke-linecap: round"/>
   </g>
   <g id="patch_24">
    <path d="M 362.069429 293.326814 
Q 485.687298 234.899961 606.249149 177.917507 
" clip-path="url(#p99a9e758b7)" style="fill: none; stroke: #ff7f0e; stroke-width: 3.023314; stroke-linecap: round"/>
    <path d="M 600.883899 177.798777 
L 606.249149 177.917507 
L 602.935015 182.138468 
" clip-path="url(#p99a9e758b7)" style="fill: none; stroke: #ff7f0e; stroke-width: 3.023314; stroke-linecap: round"/>
   </g>
   <g id="patch_25">
    <path d="M 356.442423 288.649123 
Q 383.572444 185.310237 409.84437 85.239854 
" clip-path="url(#p99a9e758b7)" style="fill: none; stroke: #ff7f0e; stroke-width: 3.022508; stroke-linecap: round"/>
    <path d="M 406.304174 89.273093 
L 409.84437 85.239854 
L 410.946844 90.491954 
" clip-path="url(#p99a9e758b7)" style="fill: none; stroke: #ff7f0e; stroke-width: 3.022508; stroke-linecap: round"/>
   </g>
   <g id="patch_26">
    <path d="M 345.719616 298.543545 
Q 212.825433 322.207378 83.254479 345.27946 
" clip-path="url(#p99a9e758b7)" style="fill: none; stroke: #ff7f0e; stroke-width: 3.019143; stroke-linecap: round"/>
    <path d="M 88.400883 346.800816 
L 83.254479 345.27946 
L 87.559406 342.07515 
" clip-path="url(#p99a9e758b7)" style="fill: none; stroke: #ff7f0e; stroke-width: 3.019143; stroke-linecap: round"/>
   </g>
   <g id="patch_27">
    <path d="M 349.752327 304.432586 
Q 297.53378 390.555544 247.065151 473.792399 
" clip-path="url(#p99a9e758b7)" style="fill: none; stroke: #ff7f0e; stroke-width: 3.018848; stroke-linecap: round"/>
    <path d="M 251.606028 470.932253 
L 247.065151 473.792399 
L 247.50156 468.44361 
" clip-path="url(#p99a9e758b7)" style="fill: none; stroke: #ff7f0e; stroke-width: 3.018848; stroke-linecap: round"/>
   </g>
   <g id="patch_28">
    <path d="M 362.69721 298.904491 
Q 493.939918 328.070401 621.891368 356.5049 
" clip-path="url(#p99a9e758b7)" style="fill: none; stroke: #ff7f0e; stroke-width: 3.015604; stroke-linecap: round"/>
    <path d="M 617.726325 353.120759 
L 621.891368 356.5049 
L 616.685029 357.80645 
" clip-path="url(#p99a9e758b7)" style="fill: none; stroke: #ff7f0e; stroke-width: 3.015604; stroke-linecap: round"/>
   </g>
   <g id="patch_29">
    <path d="M 360.629957 302.872863 
Q 363.96563 305.926705 364.826493 306.714833 
" clip-path="url(#p99a9e758b7)" style="fill: none; stroke: #ff7f0e; stroke-width: 3.001085; stroke-linecap: round"/>
    <path d="M 362.90674 301.703391 
L 364.826493 306.714833 
L 359.665487 305.24377 
" clip-path="url(#p99a9e758b7)" style="fill: none; stroke: #ff7f0e; stroke-width: 3.001085; stroke-linecap: round"/>
   </g>
   <g id="patch_30">
    <path d="M 349.070417 290.083142 
Q 281.588283 199.513237 216.108782 111.63113 
" clip-path="url(#p99a9e758b7)" style="fill: none; stroke: #ff7f0e; stroke-width: 2.997973; stroke-linecap: round"/>
    <path d="M 217.052124 116.914131 
L 216.108782 111.63113 
L 220.901188 114.046257 
" clip-path="url(#p99a9e758b7)" style="fill: none; stroke: #ff7f0e; stroke-width: 2.997973; stroke-linecap: round"/>
   </g>
   <g id="patch_31">
    <path d="M 361.52085 301.722879 
Q 466.362097 369.389484 568.39164 435.24136 
" clip-path="url(#p99a9e758b7)" style="fill: none; stroke: #ff7f0e; stroke-width: 2.993181; stroke-linecap: round"/>
    <path d="M 565.660164 430.621941 
L 568.39164 435.24136 
L 563.057219 434.65489 
" clip-path="url(#p99a9e758b7)" style="fill: none; stroke: #ff7f0e; stroke-width: 2.993181; stroke-linecap: round"/>
   </g>
   <g id="patch_32">
    <path d="M 345.984533 294.421117 
Q 215.392056 253.234467 87.989478 213.053856 
" clip-path="url(#p99a9e758b7)" style="fill: none; stroke: #ff7f0e; stroke-width: 2.991664; stroke-linecap: round"/>
    <path d="M 91.845339 216.78646 
L 87.989478 213.053856 
L 93.289078 212.208729 
" clip-path="url(#p99a9e758b7)" style="fill: none; stroke: #ff7f0e; stroke-width: 2.991664; stroke-linecap: round"/>
   </g>
   <g id="patch_33">
    <path d="M 359.530106 290.163378 
Q 426.759069 202.899183 491.947184 118.28404 
" clip-path="url(#p99a9e758b7)" style="fill: none; stroke: #ff7f0e; stroke-width: 2.990992; stroke-linecap: round"/>
    <path d="M 487.116546 120.621762 
L 491.947184 118.28404 
L 490.918979 123.551183 
" clip-path="url(#p99a9e758b7)" style="fill: none; stroke: #ff7f0e; stroke-width: 2.990992; stroke-linecap: round"/>
   </g>
   <g id="patch_34">
    <path d="M 359.956982 303.536235 
Q 438.315163 392.820863 514.47524 479.600878 
" clip-path="url(#p99a9e758b7)" style="fill: none; stroke: #ff7f0e; stroke-width: 2.98057; stroke-linecap: round"/>
    <path d="M 513.112901 474.410114 
L 514.47524 479.600878 
L 509.505225 477.57629 
" clip-path="url(#p99a9e758b7)" style="fill: none; stroke: #ff7f0e; stroke-width: 2.98057; stroke-linecap: round"/>
   </g>
   <g id="patch_35">
    <path d="M 352.728127 305.5534 
Q 335.022223 405.207339 317.898461 501.584817 
" clip-path="url(#p99a9e758b7)" style="fill: none; stroke: #ff7f0e; stroke-width: 2.976454; stroke-linecap: round"/>
    <path d="M 321.101137 497.278674 
L 317.898461 501.584817 
L 316.375153 496.43899 
" clip-path="url(#p99a9e758b7)" style="fill: none; stroke: #ff7f0e; stroke-width: 2.976454; stroke-linecap: round"/>
   </g>
   <g id="patch_36">
    <path d="M 362.449464 294.254897 
Q 489.302204 251.422162 613.006272 209.652599 
" clip-path="url(#p99a9e758b7)" style="fill: none; stroke: #ff7f0e; stroke-width: 2.97247; stroke-linecap: round"/>
    <path d="M 607.690736 208.914305 
L 613.006272 209.652599 
L 609.226315 213.462052 
" clip-path="url(#p99a9e758b7)" style="fill: none; stroke: #ff7f0e; stroke-width: 2.97247; stroke-linecap: round"/>
   </g>
   <g id="patch_37">
    <path d="M 351.032128 305.06651 
Q 311.626671 403.738402 273.452793 499.326402 
" clip-path="url(#p99a9e758b7)" style="fill: none; stroke: #ff7f0e; stroke-width: 2.970141; stroke-linecap: round"/>
    <path d="M 277.461839 495.758834 
L 273.452793 499.326402 
L 273.004166 493.978624 
" clip-path="url(#p99a9e758b7)" style="fill: none; stroke: #ff7f0e; stroke-width: 2.970141; stroke-linecap: round"/>
   </g>
   <g id="patch_38">
    <path d="M 346.920314 301.646165 
Q 251.212895 362.032384 158.3124 420.647585 
" clip-path="url(#p99a9e758b7)" style="fill: none; stroke: #ff7f0e; stroke-width: 2.968544; stroke-linecap: round"/>
    <path d="M 163.652571 420.116009 
L 158.3124 420.647585 
L 161.091241 416.056502 
" clip-path="url(#p99a9e758b7)" style="fill: none; stroke: #ff7f0e; stroke-width: 2.968544; stroke-linecap: round"/>
   </g>
   <g id="patch_39">
    <path d="M 351.446823 305.222127 
Q 350.273201 308.662005 350.170787 308.96218 
" clip-path="url(#p99a9e758b7)" style="fill: none; stroke: #ff7f0e; stroke-width: 2.967182; stroke-linecap: round"/>
    <path d="M 353.992165 305.19428 
L 350.170787 308.96218 
L 349.449294 303.644338 
" clip-path="url(#p99a9e758b7)" style="fill: none; stroke: #ff7f0e; stroke-width: 2.967182; stroke-linecap: round"/>
   </g>
   <g id="patch_40">
    <path d="M 362.898289 296.682807 
Q 501.419974 291.193609 636.629424 285.835665 
" clip-path="url(#p99a9e758b7)" style="fill: none; stroke: #ff7f0e; stroke-width: 2.964878; stroke-linecap: round"/>
    <path d="M 631.738158 283.627607 
L 636.629424 285.835665 
L 631.928218 288.423843 
" clip-path="url(#p99a9e758b7)" style="fill: none; stroke: #ff7f0e; stroke-width: 2.964878; stroke-linecap: round"/>
   </g>
   <g id="patch_41">
    <path d="M 345.717898 295.487675 
Q 215.466176 271.988288 88.471903 249.076594 
" clip-path="url(#p99a9e758b7)" style="fill: none; stroke: #ff7f0e; stroke-width: 2.960588; stroke-linecap: round"/>
    <path d="M 92.769524 252.290697 
L 88.471903 249.076594 
L 93.621758 247.566959 
" clip-path="url(#p99a9e758b7)" style="fill: none; stroke: #ff7f0e; stroke-width: 2.960588; stroke-linecap: round"/>
   </g>
   <g id="patch_42">
    <path d="M 362.713804 295.229229 
Q 490.904237 268.040817 615.857101 241.539073 
" clip-path="url(#p99a9e758b7)" style="fill: none; stroke: #ff7f0e; stroke-width: 2.960185; stroke-linecap: round"/>
    <path d="M 610.663602 240.187196 
L 615.857101 241.539073 
L 611.6595 244.882745 
" clip-path="url(#p99a9e758b7)" style="fill: none; stroke: #ff7f0e; stroke-width: 2.960185; stroke-linecap: round"/>
   </g>
   <g id="patch_43">
    <path d="M 362.866 297.837161 
Q 494.605413 310.233562 623.0507 322.319991 
" clip-path="url(#p99a9e758b7)" style="fill: none; stroke: #ff7f0e; stroke-width: 2.959372; stroke-linecap: round"/>
    <path d="M 618.496652 319.480863 
L 623.0507 322.319991 
L 618.046969 324.259753 
" clip-path="url(#p99a9e758b7)" style="fill: none; stroke: #ff7f0e; stroke-width: 2.959372; stroke-linecap: round"/>
   </g>
   <g id="patch_44">
    <path d="M 362.866894 296.222379 
Q 481.018126 285.215085 595.876045 274.514606 
" clip-path="url(#p99a9e758b7)" style="fill: none; stroke: #ff7f0e; stroke-width: 2.958384; stroke-linecap: round"/>
    <path d="M 590.874114 272.570207 
L 595.876045 274.514606 
L 591.319367 277.349511 
" clip-path="url(#p99a9e758b7)" style="fill: none; stroke: #ff7f0e; stroke-width: 2.958384; stroke-linecap: round"/>
   </g>
   <g id="patch_45">
    <path d="M 334.157236 303.604614 
Q 340.084722 301.663167 342.734174 300.795384 
" clip-path="url(#p99a9e758b7)" style="fill: none; stroke: #ff7f0e; stroke-width: 3.085224; stroke-linecap: round"/>
    <path d="M 337.425589 300.008666 
L 342.734174 300.795384 
L 338.919649 304.570221 
" clip-path="url(#p99a9e758b7)" style="fill: none; stroke: #ff7f0e; stroke-width: 3.085224; stroke-linecap: round"/>
   </g>
   <g id="patch_46">
    <path d="M 367.299081 308.978513 
Q 363.963409 305.924671 363.133548 305.164926 
" clip-path="url(#p99a9e758b7)" style="fill: none; stroke: #ff7f0e; stroke-width: 3.03868; stroke-linecap: round"/>
    <path d="M 365.053301 310.176368 
L 363.133548 305.164926 
L 368.294553 306.635989 
" clip-path="url(#p99a9e758b7)" style="fill: none; stroke: #ff7f0e; stroke-width: 3.03868; stroke-linecap: round"/>
   </g>
   <g id="patch_47">
    <path d="M 376.254014 295.861325 
Q 369.573138 296.21477 366.267449 296.389653 
" clip-path="url(#p99a9e758b7)" style="fill: none; stroke: #ff7f0e; stroke-width: 3.02308; stroke-linecap: round"/>
    <path d="M 371.187538 298.532718 
L 366.267449 296.389653 
L 370.933954 293.739421 
" clip-path="url(#p99a9e758b7)" style="fill: none; stroke: #ff7f0e; stroke-width: 3.02308; stroke-linecap: round"/>
   </g>
   <g id="patch_48">
    <path d="M 349.099171 312.103082 
Q 350.272792 308.663204 350.355348 308.421232 
" clip-path="url(#p99a9e758b7)" style="fill: none; stroke: #ff7f0e; stroke-width: 3.022188; stroke-linecap: round"/>
    <path d="M 346.533971 312.189133 
L 350.355348 308.421232 
L 351.076842 313.739075 
" clip-path="url(#p99a9e758b7)" style="fill: none; stroke: #ff7f0e; stroke-width: 3.022188; stroke-linecap: round"/>
   </g>
   <g id="patch_49">
    <path d="M 334.314462 289.275612 
Q 340.244204 291.581647 343.032227 292.665889 
" clip-path="url(#p99a9e758b7)" style="fill: none; stroke: #ff7f0e; stroke-width: 3.015053; stroke-linecap: round"/>
    <path d="M 339.428489 288.689323 
L 343.032227 292.665889 
L 337.688732 293.16294 
" clip-path="url(#p99a9e758b7)" style="fill: none; stroke: #ff7f0e; stroke-width: 3.015053; stroke-linecap: round"/>
   </g>
   <g id="patch_50">
    <path d="M 348.993036 281.568696 
Q 350.22548 285.197111 350.381499 285.656441 
" clip-path="url(#p99a9e758b7)" style="fill: none; stroke: #ff7f0e; stroke-width: 2.993565; stroke-linecap: round"/>
    <path d="M 351.110218 280.339584 
L 350.381499 285.656441 
L 346.565245 281.883351 
" clip-path="url(#p99a9e758b7)" style="fill: none; stroke: #ff7f0e; stroke-width: 2.993565; stroke-linecap: round"/>
   </g>
   <g id="patch_51">
    <path d="M 366.010623 283.743399 
Q 362.998397 287.143442 362.185707 288.060763 
" clip-path="url(#p99a9e758b7)" style="fill: none; stroke: #ff7f0e; stroke-width: 2.966731; stroke-linecap: round"/>
    <path d="M 367.165139 286.059448 
L 362.185707 288.060763 
L 363.572314 282.876429 
" clip-path="url(#p99a9e758b7)" style="fill: none; stroke: #ff7f0e; stroke-width: 2.966731; stroke-linecap: round"/>
   </g>
   <g id="PathCollection_1">
    <defs>
     <path id="ma122083771" d="M 0 11.18034 
C 2.965061 11.18034 5.80908 10.002309 7.905694 7.905694 
C 10.002309 5.80908 11.18034 2.965061 11.18034 0 
C 11.18034 -2.965061 10.002309 -5.80908 7.905694 -7.905694 
C 5.80908 -10.002309 2.965061 -11.18034 0 -11.18034 
C -2.965061 -11.18034 -5.80908 -10.002309 -7.905694 -7.905694 
C -10.002309 -5.80908 -11.18034 -2.965061 -11.18034 0 
C -11.18034 2.965061 -10.002309 5.80908 -7.905694 7.905694 
C -5.80908 10.002309 -2.965061 11.18034 0 11.18034 
z
" style="stroke: #1f77b4"/>
    </defs>
    <g clip-path="url(#p99a9e758b7)">
     <use xlink:href="#ma122083771" x="354.243262" y="297.02578" style="fill: #1f77b4; stroke: #1f77b4"/>
     <use xlink:href="#ma122083771" x="547.033213" y="143.032986" style="fill: #1f77b4; stroke: #1f77b4"/>
     <use xlink:href="#ma122083771" x="154.611058" y="459.633344" style="fill: #1f77b4; stroke: #1f77b4"/>
     <use xlink:href="#ma122083771" x="99.75252" y="172.606437" style="fill: #1f77b4; stroke: #1f77b4"/>
     <use xlink:href="#ma122083771" x="445.068515" y="96.191194" style="fill: #1f77b4; stroke: #1f77b4"/>
     <use xlink:href="#ma122083771" x="160.710335" y="106.695495" style="fill: #1f77b4; stroke: #1f77b4"/>
     <use xlink:href="#ma122083771" x="613.873475" y="407.866254" style="fill: #1f77b4; stroke: #1f77b4"/>
     <use xlink:href="#ma122083771" x="108.242656" y="407.274393" style="fill: #1f77b4; stroke: #1f77b4"/>
     <use xlink:href="#ma122083771" x="102.387122" y="261.634493" style="fill: #1f77b4; stroke: #1f77b4"/>
     <use xlink:href="#ma122083771" x="428.772543" y="491.986351" style="fill: #1f77b4; stroke: #1f77b4"/>
     <use xlink:href="#ma122083771" x="474.357537" y="496.956488" style="fill: #1f77b4; stroke: #1f77b4"/>
     <use xlink:href="#ma122083771" x="105.704473" y="367.1574" style="fill: #1f77b4; stroke: #1f77b4"/>
     <use xlink:href="#ma122083771" x="349.861724" y="81.333441" style="fill: #1f77b4; stroke: #1f77b4"/>
     <use xlink:href="#ma122083771" x="81.958278" y="304.296034" style="fill: #1f77b4; stroke: #1f77b4"/>
     <use xlink:href="#ma122083771" x="409.083413" y="518.486281" style="fill: #1f77b4; stroke: #1f77b4"/>
     <use xlink:href="#ma122083771" x="540.093916" y="460.327433" style="fill: #1f77b4; stroke: #1f77b4"/>
     <use xlink:href="#ma122083771" x="254.795147" y="74.877435" style="fill: #1f77b4; stroke: #1f77b4"/>
     <use xlink:href="#ma122083771" x="574.451401" y="128.521772" style="fill: #1f77b4; stroke: #1f77b4"/>
     <use xlink:href="#ma122083771" x="197.79785" y="481.860472" style="fill: #1f77b4; stroke: #1f77b4"/>
     <use xlink:href="#ma122083771" x="598.005505" y="389.785021" style="fill: #1f77b4; stroke: #1f77b4"/>
     <use xlink:href="#ma122083771" x="325.927185" y="306.300226" style="fill: #1f77b4; stroke: #1f77b4"/>
     <use xlink:href="#ma122083771" x="125.247604" y="138.423664" style="fill: #1f77b4; stroke: #1f77b4"/>
     <use xlink:href="#ma122083771" x="289.696177" y="95.595796" style="fill: #1f77b4; stroke: #1f77b4"/>
     <use xlink:href="#ma122083771" x="373.685776" y="314.825596" style="fill: #1f77b4; stroke: #1f77b4"/>
     <use xlink:href="#ma122083771" x="359.995478" y="510.137594" style="fill: #1f77b4; stroke: #1f77b4"/>
     <use xlink:href="#ma122083771" x="617.131866" y="172.77389" style="fill: #1f77b4; stroke: #1f77b4"/>
     <use xlink:href="#ma122083771" x="384.903368" y="295.403741" style="fill: #1f77b4; stroke: #1f77b4"/>
     <use xlink:href="#ma122083771" x="412.901882" y="73.593719" style="fill: #1f77b4; stroke: #1f77b4"/>
     <use xlink:href="#ma122083771" x="346.302731" y="320.299429" style="fill: #1f77b4; stroke: #1f77b4"/>
     <use xlink:href="#ma122083771" x="71.404959" y="347.389448" style="fill: #1f77b4; stroke: #1f77b4"/>
     <use xlink:href="#ma122083771" x="240.825942" y="484.082596" style="fill: #1f77b4; stroke: #1f77b4"/>
     <use xlink:href="#ma122083771" x="633.637094" y="359.115139" style="fill: #1f77b4; stroke: #1f77b4"/>
     <use xlink:href="#ma122083771" x="326.245195" y="286.137532" style="fill: #1f77b4; stroke: #1f77b4"/>
     <use xlink:href="#ma122083771" x="208.933555" y="102.001031" style="fill: #1f77b4; stroke: #1f77b4"/>
     <use xlink:href="#ma122083771" x="346.208543" y="273.370927" style="fill: #1f77b4; stroke: #1f77b4"/>
     <use xlink:href="#ma122083771" x="578.476469" y="441.750307" style="fill: #1f77b4; stroke: #1f77b4"/>
     <use xlink:href="#ma122083771" x="76.539776" y="209.442815" style="fill: #1f77b4; stroke: #1f77b4"/>
     <use xlink:href="#ma122083771" x="499.274063" y="108.773642" style="fill: #1f77b4; stroke: #1f77b4"/>
     <use xlink:href="#ma122083771" x="522.386226" y="488.61499" style="fill: #1f77b4; stroke: #1f77b4"/>
     <use xlink:href="#ma122083771" x="315.801174" y="513.388956" style="fill: #1f77b4; stroke: #1f77b4"/>
     <use xlink:href="#ma122083771" x="624.359618" y="205.819061" style="fill: #1f77b4; stroke: #1f77b4"/>
     <use xlink:href="#ma122083771" x="269.008401" y="510.455229" style="fill: #1f77b4; stroke: #1f77b4"/>
     <use xlink:href="#ma122083771" x="148.181974" y="427.039337" style="fill: #1f77b4; stroke: #1f77b4"/>
     <use xlink:href="#ma122083771" x="371.754292" y="277.260246" style="fill: #1f77b4; stroke: #1f77b4"/>
     <use xlink:href="#ma122083771" x="648.595041" y="285.361503" style="fill: #1f77b4; stroke: #1f77b4"/>
     <use xlink:href="#ma122083771" x="76.688231" y="246.950641" style="fill: #1f77b4; stroke: #1f77b4"/>
     <use xlink:href="#ma122083771" x="627.569436" y="239.054958" style="fill: #1f77b4; stroke: #1f77b4"/>
     <use xlink:href="#ma122083771" x="634.968434" y="323.441425" style="fill: #1f77b4; stroke: #1f77b4"/>
     <use xlink:href="#ma122083771" x="607.79119" y="273.404558" style="fill: #1f77b4; stroke: #1f77b4"/>
    </g>
   </g>
   <g id="text_1">
    <g clip-path="url(#p99a9e758b7)">
     <!-- IND -->
     <g transform="translate(346.0842 299.509217) scale(0.09 -0.09)">
      <defs>
       <path id="DejaVuSans-49" d="M 628 4666 
L 1259 4666 
L 1259 0 
L 628 0 
L 628 4666 
z
" transform="scale(0.015625)"/>
       <path id="DejaVuSans-4e" d="M 628 4666 
L 1478 4666 
L 3547 763 
L 3547 4666 
L 4159 4666 
L 4159 0 
L 3309 0 
L 1241 3903 
L 1241 0 
L 628 0 
L 628 4666 
z
" transform="scale(0.015625)"/>
       <path id="DejaVuSans-44" d="M 1259 4147 
L 1259 519 
L 2022 519 
Q 2988 519 3436 956 
Q 3884 1394 3884 2338 
Q 3884 3275 3436 3711 
Q 2988 4147 2022 4147 
L 1259 4147 
z
M 628 4666 
L 1925 4666 
Q 3281 4666 3915 4102 
Q 4550 3538 4550 2338 
Q 4550 1131 3912 565 
Q 3275 0 1925 0 
L 628 0 
L 628 4666 
z
" transform="scale(0.015625)"/>
      </defs>
      <use xlink:href="#DejaVuSans-49"/>
      <use xlink:href="#DejaVuSans-4e" transform="translate(29.492188 0)"/>
      <use xlink:href="#DejaVuSans-44" transform="translate(104.296875 0)"/>
     </g>
    </g>
   </g>
   <g id="text_2">
    <g clip-path="url(#p99a9e758b7)">
     <!-- BTN -->
     <g transform="translate(537.830713 145.516424) scale(0.09 -0.09)">
      <defs>
       <path id="DejaVuSans-42" d="M 1259 2228 
L 1259 519 
L 2272 519 
Q 2781 519 3026 730 
Q 3272 941 3272 1375 
Q 3272 1813 3026 2020 
Q 2781 2228 2272 2228 
L 1259 2228 
z
M 1259 4147 
L 1259 2741 
L 2194 2741 
Q 2656 2741 2882 2914 
Q 3109 3088 3109 3444 
Q 3109 3797 2882 3972 
Q 2656 4147 2194 4147 
L 1259 4147 
z
M 628 4666 
L 2241 4666 
Q 2963 4666 3353 4366 
Q 3744 4066 3744 3513 
Q 3744 3084 3544 2831 
Q 3344 2578 2956 2516 
Q 3422 2416 3680 2098 
Q 3938 1781 3938 1306 
Q 3938 681 3513 340 
Q 3088 0 2303 0 
L 628 0 
L 628 4666 
z
" transform="scale(0.015625)"/>
       <path id="DejaVuSans-54" d="M -19 4666 
L 3928 4666 
L 3928 4134 
L 2272 4134 
L 2272 0 
L 1638 0 
L 1638 4134 
L -19 4134 
L -19 4666 
z
" transform="scale(0.015625)"/>
      </defs>
      <use xlink:href="#DejaVuSans-42"/>
      <use xlink:href="#DejaVuSans-54" transform="translate(68.603516 0)"/>
      <use xlink:href="#DejaVuSans-4e" transform="translate(129.6875 0)"/>
     </g>
    </g>
   </g>
   <g id="text_3">
    <g clip-path="url(#p99a9e758b7)">
     <!-- NPL -->
     <g transform="translate(146.023792 462.116782) scale(0.09 -0.09)">
      <defs>
       <path id="DejaVuSans-50" d="M 1259 4147 
L 1259 2394 
L 2053 2394 
Q 2494 2394 2734 2622 
Q 2975 2850 2975 3272 
Q 2975 3691 2734 3919 
Q 2494 4147 2053 4147 
L 1259 4147 
z
M 628 4666 
L 2053 4666 
Q 2838 4666 3239 4311 
Q 3641 3956 3641 3272 
Q 3641 2581 3239 2228 
Q 2838 1875 2053 1875 
L 1259 1875 
L 1259 0 
L 628 0 
L 628 4666 
z
" transform="scale(0.015625)"/>
       <path id="DejaVuSans-4c" d="M 628 4666 
L 1259 4666 
L 1259 531 
L 3531 531 
L 3531 0 
L 628 0 
L 628 4666 
z
" transform="scale(0.015625)"/>
      </defs>
      <use xlink:href="#DejaVuSans-4e"/>
      <use xlink:href="#DejaVuSans-50" transform="translate(74.804688 0)"/>
      <use xlink:href="#DejaVuSans-4c" transform="translate(135.107422 0)"/>
     </g>
    </g>
   </g>
   <g id="text_4">
    <g clip-path="url(#p99a9e758b7)">
     <!-- DJI -->
     <g transform="translate(93.63252 175.089875) scale(0.09 -0.09)">
      <defs>
       <path id="DejaVuSans-4a" d="M 628 4666 
L 1259 4666 
L 1259 325 
Q 1259 -519 939 -900 
Q 619 -1281 -91 -1281 
L -331 -1281 
L -331 -750 
L -134 -750 
Q 284 -750 456 -515 
Q 628 -281 628 325 
L 628 4666 
z
" transform="scale(0.015625)"/>
      </defs>
      <use xlink:href="#DejaVuSans-44"/>
      <use xlink:href="#DejaVuSans-4a" transform="translate(77.001953 0)"/>
      <use xlink:href="#DejaVuSans-49" transform="translate(106.494141 0)"/>
     </g>
    </g>
   </g>
   <g id="text_5">
    <g clip-path="url(#p99a9e758b7)">
     <!-- ARE -->
     <g transform="translate(436.02 98.674631) scale(0.09 -0.09)">
      <defs>
       <path id="DejaVuSans-41" d="M 2188 4044 
L 1331 1722 
L 3047 1722 
L 2188 4044 
z
M 1831 4666 
L 2547 4666 
L 4325 0 
L 3669 0 
L 3244 1197 
L 1141 1197 
L 716 0 
L 50 0 
L 1831 4666 
z
" transform="scale(0.015625)"/>
       <path id="DejaVuSans-52" d="M 2841 2188 
Q 3044 2119 3236 1894 
Q 3428 1669 3622 1275 
L 4263 0 
L 3584 0 
L 2988 1197 
Q 2756 1666 2539 1819 
Q 2322 1972 1947 1972 
L 1259 1972 
L 1259 0 
L 628 0 
L 628 4666 
L 2053 4666 
Q 2853 4666 3247 4331 
Q 3641 3997 3641 3322 
Q 3641 2881 3436 2590 
Q 3231 2300 2841 2188 
z
M 1259 4147 
L 1259 2491 
L 2053 2491 
Q 2509 2491 2742 2702 
Q 2975 2913 2975 3322 
Q 2975 3731 2742 3939 
Q 2509 4147 2053 4147 
L 1259 4147 
z
" transform="scale(0.015625)"/>
       <path id="DejaVuSans-45" d="M 628 4666 
L 3578 4666 
L 3578 4134 
L 1259 4134 
L 1259 2753 
L 3481 2753 
L 3481 2222 
L 1259 2222 
L 1259 531 
L 3634 531 
L 3634 0 
L 628 0 
L 628 4666 
z
" transform="scale(0.015625)"/>
      </defs>
      <use xlink:href="#DejaVuSans-41"/>
      <use xlink:href="#DejaVuSans-52" transform="translate(68.408203 0)"/>
      <use xlink:href="#DejaVuSans-45" transform="translate(137.890625 0)"/>
     </g>
    </g>
   </g>
   <g id="text_6">
    <g clip-path="url(#p99a9e758b7)">
     <!-- OMN -->
     <g transform="translate(149.918773 109.178932) scale(0.09 -0.09)">
      <defs>
       <path id="DejaVuSans-4f" d="M 2522 4238 
Q 1834 4238 1429 3725 
Q 1025 3213 1025 2328 
Q 1025 1447 1429 934 
Q 1834 422 2522 422 
Q 3209 422 3611 934 
Q 4013 1447 4013 2328 
Q 4013 3213 3611 3725 
Q 3209 4238 2522 4238 
z
M 2522 4750 
Q 3503 4750 4090 4092 
Q 4678 3434 4678 2328 
Q 4678 1225 4090 567 
Q 3503 -91 2522 -91 
Q 1538 -91 948 565 
Q 359 1222 359 2328 
Q 359 3434 948 4092 
Q 1538 4750 2522 4750 
z
" transform="scale(0.015625)"/>
       <path id="DejaVuSans-4d" d="M 628 4666 
L 1569 4666 
L 2759 1491 
L 3956 4666 
L 4897 4666 
L 4897 0 
L 4281 0 
L 4281 4097 
L 3078 897 
L 2444 897 
L 1241 4097 
L 1241 0 
L 628 0 
L 628 4666 
z
" transform="scale(0.015625)"/>
      </defs>
      <use xlink:href="#DejaVuSans-4f"/>
      <use xlink:href="#DejaVuSans-4d" transform="translate(78.710938 0)"/>
      <use xlink:href="#DejaVuSans-4e" transform="translate(164.990234 0)"/>
     </g>
    </g>
   </g>
   <g id="text_7">
    <g clip-path="url(#p99a9e758b7)">
     <!-- IRQ -->
     <g transform="translate(605.876834 410.349692) scale(0.09 -0.09)">
      <defs>
       <path id="DejaVuSans-51" d="M 2522 4238 
Q 1834 4238 1429 3725 
Q 1025 3213 1025 2328 
Q 1025 1447 1429 934 
Q 1834 422 2522 422 
Q 3209 422 3611 934 
Q 4013 1447 4013 2328 
Q 4013 3213 3611 3725 
Q 3209 4238 2522 4238 
z
M 3406 84 
L 4238 -825 
L 3475 -825 
L 2784 -78 
Q 2681 -84 2626 -87 
Q 2572 -91 2522 -91 
Q 1538 -91 948 567 
Q 359 1225 359 2328 
Q 359 3434 948 4092 
Q 1538 4750 2522 4750 
Q 3503 4750 4090 4092 
Q 4678 3434 4678 2328 
Q 4678 1516 4351 937 
Q 4025 359 3406 84 
z
" transform="scale(0.015625)"/>
      </defs>
      <use xlink:href="#DejaVuSans-49"/>
      <use xlink:href="#DejaVuSans-52" transform="translate(29.492188 0)"/>
      <use xlink:href="#DejaVuSans-51" transform="translate(98.974609 0)"/>
     </g>
    </g>
   </g>
   <g id="text_8">
    <g clip-path="url(#p99a9e758b7)">
     <!-- JOR -->
     <g transform="translate(100.246015 409.75783) scale(0.09 -0.09)">
      <use xlink:href="#DejaVuSans-4a"/>
      <use xlink:href="#DejaVuSans-4f" transform="translate(29.492188 0)"/>
      <use xlink:href="#DejaVuSans-52" transform="translate(108.203125 0)"/>
     </g>
    </g>
   </g>
   <g id="text_9">
    <g clip-path="url(#p99a9e758b7)">
     <!-- TGO -->
     <g transform="translate(92.609466 264.11793) scale(0.09 -0.09)">
      <defs>
       <path id="DejaVuSans-47" d="M 3809 666 
L 3809 1919 
L 2778 1919 
L 2778 2438 
L 4434 2438 
L 4434 434 
Q 4069 175 3628 42 
Q 3188 -91 2688 -91 
Q 1594 -91 976 548 
Q 359 1188 359 2328 
Q 359 3472 976 4111 
Q 1594 4750 2688 4750 
Q 3144 4750 3555 4637 
Q 3966 4525 4313 4306 
L 4313 3634 
Q 3963 3931 3569 4081 
Q 3175 4231 2741 4231 
Q 1884 4231 1454 3753 
Q 1025 3275 1025 2328 
Q 1025 1384 1454 906 
Q 1884 428 2741 428 
Q 3075 428 3337 486 
Q 3600 544 3809 666 
z
" transform="scale(0.015625)"/>
      </defs>
      <use xlink:href="#DejaVuSans-54"/>
      <use xlink:href="#DejaVuSans-47" transform="translate(61.083984 0)"/>
      <use xlink:href="#DejaVuSans-4f" transform="translate(138.574219 0)"/>
     </g>
    </g>
   </g>
   <g id="text_10">
    <g clip-path="url(#p99a9e758b7)">
     <!-- TZA -->
     <g transform="translate(419.863246 494.469788) scale(0.09 -0.09)">
      <defs>
       <path id="DejaVuSans-5a" d="M 359 4666 
L 4025 4666 
L 4025 4184 
L 1075 531 
L 4097 531 
L 4097 0 
L 288 0 
L 288 481 
L 3238 4134 
L 359 4134 
L 359 4666 
z
" transform="scale(0.015625)"/>
      </defs>
      <use xlink:href="#DejaVuSans-54"/>
      <use xlink:href="#DejaVuSans-5a" transform="translate(61.083984 0)"/>
      <use xlink:href="#DejaVuSans-41" transform="translate(129.589844 0)"/>
     </g>
    </g>
   </g>
   <g id="text_11">
    <g clip-path="url(#p99a9e758b7)">
     <!-- MOZ -->
     <g transform="translate(463.850037 499.439925) scale(0.09 -0.09)">
      <use xlink:href="#DejaVuSans-4d"/>
      <use xlink:href="#DejaVuSans-4f" transform="translate(86.279297 0)"/>
      <use xlink:href="#DejaVuSans-5a" transform="translate(164.990234 0)"/>
     </g>
    </g>
   </g>
   <g id="text_12">
    <g clip-path="url(#p99a9e758b7)">
     <!-- BGD -->
     <g transform="translate(95.744004 369.640838) scale(0.09 -0.09)">
      <use xlink:href="#DejaVuSans-42"/>
      <use xlink:href="#DejaVuSans-47" transform="translate(66.853516 0)"/>
      <use xlink:href="#DejaVuSans-44" transform="translate(144.34375 0)"/>
     </g>
    </g>
   </g>
   <g id="text_13">
    <g clip-path="url(#p99a9e758b7)">
     <!-- LKA -->
     <g transform="translate(341.403834 83.816879) scale(0.09 -0.09)">
      <defs>
       <path id="DejaVuSans-4b" d="M 628 4666 
L 1259 4666 
L 1259 2694 
L 3353 4666 
L 4166 4666 
L 1850 2491 
L 4331 0 
L 3500 0 
L 1259 2247 
L 1259 0 
L 628 0 
L 628 4666 
z
" transform="scale(0.015625)"/>
      </defs>
      <use xlink:href="#DejaVuSans-4c"/>
      <use xlink:href="#DejaVuSans-4b" transform="translate(55.712891 0)"/>
      <use xlink:href="#DejaVuSans-41" transform="translate(119.539062 0)"/>
     </g>
    </g>
   </g>
   <g id="text_14">
    <g clip-path="url(#p99a9e758b7)">
     <!-- MUS -->
     <g transform="translate(71.925387 306.779471) scale(0.09 -0.09)">
      <defs>
       <path id="DejaVuSans-55" d="M 556 4666 
L 1191 4666 
L 1191 1831 
Q 1191 1081 1462 751 
Q 1734 422 2344 422 
Q 2950 422 3222 751 
Q 3494 1081 3494 1831 
L 3494 4666 
L 4128 4666 
L 4128 1753 
Q 4128 841 3676 375 
Q 3225 -91 2344 -91 
Q 1459 -91 1007 375 
Q 556 841 556 1753 
L 556 4666 
z
" transform="scale(0.015625)"/>
       <path id="DejaVuSans-53" d="M 3425 4513 
L 3425 3897 
Q 3066 4069 2747 4153 
Q 2428 4238 2131 4238 
Q 1616 4238 1336 4038 
Q 1056 3838 1056 3469 
Q 1056 3159 1242 3001 
Q 1428 2844 1947 2747 
L 2328 2669 
Q 3034 2534 3370 2195 
Q 3706 1856 3706 1288 
Q 3706 609 3251 259 
Q 2797 -91 1919 -91 
Q 1588 -91 1214 -16 
Q 841 59 441 206 
L 441 856 
Q 825 641 1194 531 
Q 1563 422 1919 422 
Q 2459 422 2753 634 
Q 3047 847 3047 1241 
Q 3047 1584 2836 1778 
Q 2625 1972 2144 2069 
L 1759 2144 
Q 1053 2284 737 2584 
Q 422 2884 422 3419 
Q 422 4038 858 4394 
Q 1294 4750 2059 4750 
Q 2388 4750 2728 4690 
Q 3069 4631 3425 4513 
z
" transform="scale(0.015625)"/>
      </defs>
      <use xlink:href="#DejaVuSans-4d"/>
      <use xlink:href="#DejaVuSans-55" transform="translate(86.279297 0)"/>
      <use xlink:href="#DejaVuSans-53" transform="translate(159.472656 0)"/>
     </g>
    </g>
   </g>
   <g id="text_15">
    <g clip-path="url(#p99a9e758b7)">
     <!-- ZAF -->
     <g transform="translate(400.334428 520.969718) scale(0.09 -0.09)">
      <defs>
       <path id="DejaVuSans-46" d="M 628 4666 
L 3309 4666 
L 3309 4134 
L 1259 4134 
L 1259 2759 
L 3109 2759 
L 3109 2228 
L 1259 2228 
L 1259 0 
L 628 0 
L 628 4666 
z
" transform="scale(0.015625)"/>
      </defs>
      <use xlink:href="#DejaVuSans-5a"/>
      <use xlink:href="#DejaVuSans-41" transform="translate(68.505859 0)"/>
      <use xlink:href="#DejaVuSans-46" transform="translate(136.914062 0)"/>
     </g>
    </g>
   </g>
   <g id="text_16">
    <g clip-path="url(#p99a9e758b7)">
     <!-- UGA -->
     <g transform="translate(530.2354 462.81087) scale(0.09 -0.09)">
      <use xlink:href="#DejaVuSans-55"/>
      <use xlink:href="#DejaVuSans-47" transform="translate(73.193359 0)"/>
      <use xlink:href="#DejaVuSans-41" transform="translate(150.683594 0)"/>
     </g>
    </g>
   </g>
   <g id="text_17">
    <g clip-path="url(#p99a9e758b7)">
     <!-- AGO -->
     <g transform="translate(244.766476 77.360873) scale(0.09 -0.09)">
      <use xlink:href="#DejaVuSans-41"/>
      <use xlink:href="#DejaVuSans-47" transform="translate(66.658203 0)"/>
      <use xlink:href="#DejaVuSans-4f" transform="translate(144.148438 0)"/>
     </g>
    </g>
   </g>
   <g id="text_18">
    <g clip-path="url(#p99a9e758b7)">
     <!-- NAM -->
     <g transform="translate(564.123901 131.00521) scale(0.09 -0.09)">
      <use xlink:href="#DejaVuSans-4e"/>
      <use xlink:href="#DejaVuSans-41" transform="translate(74.804688 0)"/>
      <use xlink:href="#DejaVuSans-4d" transform="translate(143.212891 0)"/>
     </g>
    </g>
   </g>
   <g id="text_19">
    <g clip-path="url(#p99a9e758b7)">
     <!-- BDI -->
     <g transform="translate(189.917928 484.34391) scale(0.09 -0.09)">
      <use xlink:href="#DejaVuSans-42"/>
      <use xlink:href="#DejaVuSans-44" transform="translate(68.603516 0)"/>
      <use xlink:href="#DejaVuSans-49" transform="translate(145.605469 0)"/>
     </g>
    </g>
   </g>
   <g id="text_20">
    <g clip-path="url(#p99a9e758b7)">
     <!-- BHR -->
     <g transform="translate(588.407145 392.268458) scale(0.09 -0.09)">
      <defs>
       <path id="DejaVuSans-48" d="M 628 4666 
L 1259 4666 
L 1259 2753 
L 3553 2753 
L 3553 4666 
L 4184 4666 
L 4184 0 
L 3553 0 
L 3553 2222 
L 1259 2222 
L 1259 0 
L 628 0 
L 628 4666 
z
" transform="scale(0.015625)"/>
      </defs>
      <use xlink:href="#DejaVuSans-42"/>
      <use xlink:href="#DejaVuSans-48" transform="translate(68.603516 0)"/>
      <use xlink:href="#DejaVuSans-52" transform="translate(143.798828 0)"/>
     </g>
    </g>
   </g>
   <g id="text_21">
    <g clip-path="url(#p99a9e758b7)">
     <!-- USA -->
     <g transform="translate(316.614294 308.783664) scale(0.09 -0.09)">
      <use xlink:href="#DejaVuSans-55"/>
      <use xlink:href="#DejaVuSans-53" transform="translate(73.193359 0)"/>
      <use xlink:href="#DejaVuSans-41" transform="translate(138.544922 0)"/>
     </g>
    </g>
   </g>
   <g id="text_22">
    <g clip-path="url(#p99a9e758b7)">
     <!-- PRY -->
     <g transform="translate(116.945807 140.907101) scale(0.09 -0.09)">
      <defs>
       <path id="DejaVuSans-59" d="M -13 4666 
L 666 4666 
L 1959 2747 
L 3244 4666 
L 3922 4666 
L 2272 2222 
L 2272 0 
L 1638 0 
L 1638 2222 
L -13 4666 
z
" transform="scale(0.015625)"/>
      </defs>
      <use xlink:href="#DejaVuSans-50"/>
      <use xlink:href="#DejaVuSans-52" transform="translate(60.302734 0)"/>
      <use xlink:href="#DejaVuSans-59" transform="translate(123.410156 0)"/>
     </g>
    </g>
   </g>
   <g id="text_23">
    <g clip-path="url(#p99a9e758b7)">
     <!-- KEN -->
     <g transform="translate(280.535162 98.079234) scale(0.09 -0.09)">
      <use xlink:href="#DejaVuSans-4b"/>
      <use xlink:href="#DejaVuSans-45" transform="translate(65.576172 0)"/>
      <use xlink:href="#DejaVuSans-4e" transform="translate(128.759766 0)"/>
     </g>
    </g>
   </g>
   <g id="text_24">
    <g clip-path="url(#p99a9e758b7)">
     <!-- NLD -->
     <g transform="translate(364.34687 317.309033) scale(0.09 -0.09)">
      <use xlink:href="#DejaVuSans-4e"/>
      <use xlink:href="#DejaVuSans-4c" transform="translate(74.804688 0)"/>
      <use xlink:href="#DejaVuSans-44" transform="translate(130.517578 0)"/>
     </g>
    </g>
   </g>
   <g id="text_25">
    <g clip-path="url(#p99a9e758b7)">
     <!-- AUS -->
     <g transform="translate(350.766963 512.621031) scale(0.09 -0.09)">
      <use xlink:href="#DejaVuSans-41"/>
      <use xlink:href="#DejaVuSans-55" transform="translate(68.408203 0)"/>
      <use xlink:href="#DejaVuSans-53" transform="translate(141.601562 0)"/>
     </g>
    </g>
   </g>
   <g id="text_26">
    <g clip-path="url(#p99a9e758b7)">
     <!-- SDN -->
     <g transform="translate(607.443507 175.257328) scale(0.09 -0.09)">
      <use xlink:href="#DejaVuSans-53"/>
      <use xlink:href="#DejaVuSans-44" transform="translate(63.476562 0)"/>
      <use xlink:href="#DejaVuSans-4e" transform="translate(140.478516 0)"/>
     </g>
    </g>
   </g>
   <g id="text_27">
    <g clip-path="url(#p99a9e758b7)">
     <!-- BEL -->
     <g transform="translate(376.465165 297.887178) scale(0.09 -0.09)">
      <use xlink:href="#DejaVuSans-42"/>
      <use xlink:href="#DejaVuSans-45" transform="translate(68.603516 0)"/>
      <use xlink:href="#DejaVuSans-4c" transform="translate(131.787109 0)"/>
     </g>
    </g>
   </g>
   <g id="text_28">
    <g clip-path="url(#p99a9e758b7)">
     <!-- MYS -->
     <g transform="translate(403.413913 76.077157) scale(0.09 -0.09)">
      <use xlink:href="#DejaVuSans-4d"/>
      <use xlink:href="#DejaVuSans-59" transform="translate(86.279297 0)"/>
      <use xlink:href="#DejaVuSans-53" transform="translate(147.363281 0)"/>
     </g>
    </g>
   </g>
   <g id="text_29">
    <g clip-path="url(#p99a9e758b7)">
     <!-- FRA -->
     <g transform="translate(337.68945 322.782866) scale(0.09 -0.09)">
      <use xlink:href="#DejaVuSans-46"/>
      <use xlink:href="#DejaVuSans-52" transform="translate(57.519531 0)"/>
      <use xlink:href="#DejaVuSans-41" transform="translate(123.001953 0)"/>
     </g>
    </g>
   </g>
   <g id="text_30">
    <g clip-path="url(#p99a9e758b7)">
     <!-- SGP -->
     <g transform="translate(62.348006 349.872885) scale(0.09 -0.09)">
      <use xlink:href="#DejaVuSans-53"/>
      <use xlink:href="#DejaVuSans-47" transform="translate(63.476562 0)"/>
      <use xlink:href="#DejaVuSans-50" transform="translate(140.966797 0)"/>
     </g>
    </g>
   </g>
   <g id="text_31">
    <g clip-path="url(#p99a9e758b7)">
     <!-- ALB -->
     <g transform="translate(232.152895 486.566033) scale(0.09 -0.09)">
      <use xlink:href="#DejaVuSans-41"/>
      <use xlink:href="#DejaVuSans-4c" transform="translate(68.408203 0)"/>
      <use xlink:href="#DejaVuSans-42" transform="translate(124.121094 0)"/>
     </g>
    </g>
   </g>
   <g id="text_32">
    <g clip-path="url(#p99a9e758b7)">
     <!-- URY -->
     <g transform="translate(624.755219 361.598576) scale(0.09 -0.09)">
      <use xlink:href="#DejaVuSans-55"/>
      <use xlink:href="#DejaVuSans-52" transform="translate(73.193359 0)"/>
      <use xlink:href="#DejaVuSans-59" transform="translate(136.300781 0)"/>
     </g>
    </g>
   </g>
   <g id="text_33">
    <g clip-path="url(#p99a9e758b7)">
     <!-- CHN -->
     <g transform="translate(316.352226 288.62097) scale(0.09 -0.09)">
      <defs>
       <path id="DejaVuSans-43" d="M 4122 4306 
L 4122 3641 
Q 3803 3938 3442 4084 
Q 3081 4231 2675 4231 
Q 1875 4231 1450 3742 
Q 1025 3253 1025 2328 
Q 1025 1406 1450 917 
Q 1875 428 2675 428 
Q 3081 428 3442 575 
Q 3803 722 4122 1019 
L 4122 359 
Q 3791 134 3420 21 
Q 3050 -91 2638 -91 
Q 1578 -91 968 557 
Q 359 1206 359 2328 
Q 359 3453 968 4101 
Q 1578 4750 2638 4750 
Q 3056 4750 3426 4639 
Q 3797 4528 4122 4306 
z
" transform="scale(0.015625)"/>
      </defs>
      <use xlink:href="#DejaVuSans-43"/>
      <use xlink:href="#DejaVuSans-48" transform="translate(69.824219 0)"/>
      <use xlink:href="#DejaVuSans-4e" transform="translate(145.019531 0)"/>
     </g>
    </g>
   </g>
   <g id="text_34">
    <g clip-path="url(#p99a9e758b7)">
     <!-- GIN -->
     <g transform="translate(200.752695 104.484468) scale(0.09 -0.09)">
      <use xlink:href="#DejaVuSans-47"/>
      <use xlink:href="#DejaVuSans-49" transform="translate(77.490234 0)"/>
      <use xlink:href="#DejaVuSans-4e" transform="translate(106.982422 0)"/>
     </g>
    </g>
   </g>
   <g id="text_35">
    <g clip-path="url(#p99a9e758b7)">
     <!-- DEU -->
     <g transform="translate(336.606668 275.854364) scale(0.09 -0.09)">
      <use xlink:href="#DejaVuSans-44"/>
      <use xlink:href="#DejaVuSans-45" transform="translate(77.001953 0)"/>
      <use xlink:href="#DejaVuSans-55" transform="translate(140.185547 0)"/>
     </g>
    </g>
   </g>
   <g id="text_36">
    <g clip-path="url(#p99a9e758b7)">
     <!-- QAT -->
     <g transform="translate(569.456078 444.233744) scale(0.09 -0.09)">
      <use xlink:href="#DejaVuSans-51"/>
      <use xlink:href="#DejaVuSans-41" transform="translate(78.710938 0)"/>
      <use xlink:href="#DejaVuSans-54" transform="translate(139.369141 0)"/>
     </g>
    </g>
   </g>
   <g id="text_37">
    <g clip-path="url(#p99a9e758b7)">
     <!-- SLE -->
     <g transform="translate(68.332197 211.926252) scale(0.09 -0.09)">
      <use xlink:href="#DejaVuSans-53"/>
      <use xlink:href="#DejaVuSans-4c" transform="translate(63.476562 0)"/>
      <use xlink:href="#DejaVuSans-45" transform="translate(119.189453 0)"/>
     </g>
    </g>
   </g>
   <g id="text_38">
    <g clip-path="url(#p99a9e758b7)">
     <!-- NER -->
     <g transform="translate(489.937266 111.257079) scale(0.09 -0.09)">
      <use xlink:href="#DejaVuSans-4e"/>
      <use xlink:href="#DejaVuSans-45" transform="translate(74.804688 0)"/>
      <use xlink:href="#DejaVuSans-52" transform="translate(137.988281 0)"/>
     </g>
    </g>
   </g>
   <g id="text_39">
    <g clip-path="url(#p99a9e758b7)">
     <!-- MAR -->
     <g transform="translate(512.298491 491.098427) scale(0.09 -0.09)">
      <use xlink:href="#DejaVuSans-4d"/>
      <use xlink:href="#DejaVuSans-41" transform="translate(86.279297 0)"/>
      <use xlink:href="#DejaVuSans-52" transform="translate(154.6875 0)"/>
     </g>
    </g>
   </g>
   <g id="text_40">
    <g clip-path="url(#p99a9e758b7)">
     <!-- ARG -->
     <g transform="translate(306.109299 515.872393) scale(0.09 -0.09)">
      <use xlink:href="#DejaVuSans-41"/>
      <use xlink:href="#DejaVuSans-52" transform="translate(68.408203 0)"/>
      <use xlink:href="#DejaVuSans-47" transform="translate(137.890625 0)"/>
     </g>
    </g>
   </g>
   <g id="text_41">
    <g clip-path="url(#p99a9e758b7)">
     <!-- YEM -->
     <g transform="translate(614.885009 208.302498) scale(0.09 -0.09)">
      <use xlink:href="#DejaVuSans-59"/>
      <use xlink:href="#DejaVuSans-45" transform="translate(61.083984 0)"/>
      <use xlink:href="#DejaVuSans-4d" transform="translate(124.267578 0)"/>
     </g>
    </g>
   </g>
   <g id="text_42">
    <g clip-path="url(#p99a9e758b7)">
     <!-- GBR -->
     <g transform="translate(259.307386 512.938666) scale(0.09 -0.09)">
      <use xlink:href="#DejaVuSans-47"/>
      <use xlink:href="#DejaVuSans-42" transform="translate(77.490234 0)"/>
      <use xlink:href="#DejaVuSans-52" transform="translate(146.09375 0)"/>
     </g>
    </g>
   </g>
   <g id="text_43">
    <g clip-path="url(#p99a9e758b7)">
     <!-- TUR -->
     <g transform="translate(139.013224 429.522775) scale(0.09 -0.09)">
      <use xlink:href="#DejaVuSans-54"/>
      <use xlink:href="#DejaVuSans-55" transform="translate(61.083984 0)"/>
      <use xlink:href="#DejaVuSans-52" transform="translate(134.277344 0)"/>
     </g>
    </g>
   </g>
   <g id="text_44">
    <g clip-path="url(#p99a9e758b7)">
     <!-- RUS -->
     <g transform="translate(362.477261 279.743683) scale(0.09 -0.09)">
      <use xlink:href="#DejaVuSans-52"/>
      <use xlink:href="#DejaVuSans-55" transform="translate(69.482422 0)"/>
      <use xlink:href="#DejaVuSans-53" transform="translate(142.675781 0)"/>
     </g>
    </g>
   </g>
   <g id="text_45">
    <g clip-path="url(#p99a9e758b7)">
     <!-- ETH -->
     <g transform="translate(639.618948 287.844941) scale(0.09 -0.09)">
      <use xlink:href="#DejaVuSans-45"/>
      <use xlink:href="#DejaVuSans-54" transform="translate(63.183594 0)"/>
      <use xlink:href="#DejaVuSans-48" transform="translate(124.267578 0)"/>
     </g>
    </g>
   </g>
   <g id="text_46">
    <g clip-path="url(#p99a9e758b7)">
     <!-- IRN -->
     <g transform="translate(68.867372 249.434078) scale(0.09 -0.09)">
      <use xlink:href="#DejaVuSans-49"/>
      <use xlink:href="#DejaVuSans-52" transform="translate(29.492188 0)"/>
      <use xlink:href="#DejaVuSans-4e" transform="translate(98.974609 0)"/>
     </g>
    </g>
   </g>
   <g id="text_47">
    <g clip-path="url(#p99a9e758b7)">
     <!-- PHL -->
     <g transform="translate(618.964593 241.538395) scale(0.09 -0.09)">
      <use xlink:href="#DejaVuSans-50"/>
      <use xlink:href="#DejaVuSans-48" transform="translate(60.302734 0)"/>
      <use xlink:href="#DejaVuSans-4c" transform="translate(135.498047 0)"/>
     </g>
    </g>
   </g>
   <g id="text_48">
    <g clip-path="url(#p99a9e758b7)">
     <!-- SOM -->
     <g transform="translate(624.686637 325.924863) scale(0.09 -0.09)">
      <use xlink:href="#DejaVuSans-53"/>
      <use xlink:href="#DejaVuSans-4f" transform="translate(63.476562 0)"/>
      <use xlink:href="#DejaVuSans-4d" transform="translate(142.1875 0)"/>
     </g>
    </g>
   </g>
   <g id="text_49">
    <g clip-path="url(#p99a9e758b7)">
     <!-- CMR -->
     <g transform="translate(597.639471 275.887996) scale(0.09 -0.09)">
      <use xlink:href="#DejaVuSans-43"/>
      <use xlink:href="#DejaVuSans-4d" transform="translate(69.824219 0)"/>
      <use xlink:href="#DejaVuSans-52" transform="translate(156.103516 0)"/>
     </g>
    </g>
   </g>
   <g id="text_50">
    <!-- Coercion exposure network – sector=energy, year=2024 (focus IND) -->
    <g transform="translate(153.687188 20.88) scale(0.12 -0.12)">
     <defs>
      <path id="DejaVuSans-6f" d="M 1959 3097 
Q 1497 3097 1228 2736 
Q 959 2375 959 1747 
Q 959 1119 1226 758 
Q 1494 397 1959 397 
Q 2419 397 2687 759 
Q 2956 1122 2956 1747 
Q 2956 2369 2687 2733 
Q 2419 3097 1959 3097 
z
M 1959 3584 
Q 2709 3584 3137 3096 
Q 3566 2609 3566 1747 
Q 3566 888 3137 398 
Q 2709 -91 1959 -91 
Q 1206 -91 779 398 
Q 353 888 353 1747 
Q 353 2609 779 3096 
Q 1206 3584 1959 3584 
z
" transform="scale(0.015625)"/>
      <path id="DejaVuSans-65" d="M 3597 1894 
L 3597 1613 
L 953 1613 
Q 991 1019 1311 708 
Q 1631 397 2203 397 
Q 2534 397 2845 478 
Q 3156 559 3463 722 
L 3463 178 
Q 3153 47 2828 -22 
Q 2503 -91 2169 -91 
Q 1331 -91 842 396 
Q 353 884 353 1716 
Q 353 2575 817 3079 
Q 1281 3584 2069 3584 
Q 2775 3584 3186 3129 
Q 3597 2675 3597 1894 
z
M 3022 2063 
Q 3016 2534 2758 2815 
Q 2500 3097 2075 3097 
Q 1594 3097 1305 2825 
Q 1016 2553 972 2059 
L 3022 2063 
z
" transform="scale(0.015625)"/>
      <path id="DejaVuSans-72" d="M 2631 2963 
Q 2534 3019 2420 3045 
Q 2306 3072 2169 3072 
Q 1681 3072 1420 2755 
Q 1159 2438 1159 1844 
L 1159 0 
L 581 0 
L 581 3500 
L 1159 3500 
L 1159 2956 
Q 1341 3275 1631 3429 
Q 1922 3584 2338 3584 
Q 2397 3584 2469 3576 
Q 2541 3569 2628 3553 
L 2631 2963 
z
" transform="scale(0.015625)"/>
      <path id="DejaVuSans-63" d="M 3122 3366 
L 3122 2828 
Q 2878 2963 2633 3030 
Q 2388 3097 2138 3097 
Q 1578 3097 1268 2742 
Q 959 2388 959 1747 
Q 959 1106 1268 751 
Q 1578 397 2138 397 
Q 2388 397 2633 464 
Q 2878 531 3122 666 
L 3122 134 
Q 2881 22 2623 -34 
Q 2366 -91 2075 -91 
Q 1284 -91 818 406 
Q 353 903 353 1747 
Q 353 2603 823 3093 
Q 1294 3584 2113 3584 
Q 2378 3584 2631 3529 
Q 2884 3475 3122 3366 
z
" transform="scale(0.015625)"/>
      <path id="DejaVuSans-69" d="M 603 3500 
L 1178 3500 
L 1178 0 
L 603 0 
L 603 3500 
z
M 603 4863 
L 1178 4863 
L 1178 4134 
L 603 4134 
L 603 4863 
z
" transform="scale(0.015625)"/>
      <path id="DejaVuSans-6e" d="M 3513 2113 
L 3513 0 
L 2938 0 
L 2938 2094 
Q 2938 2591 2744 2837 
Q 2550 3084 2163 3084 
Q 1697 3084 1428 2787 
Q 1159 2491 1159 1978 
L 1159 0 
L 581 0 
L 581 3500 
L 1159 3500 
L 1159 2956 
Q 1366 3272 1645 3428 
Q 1925 3584 2291 3584 
Q 2894 3584 3203 3211 
Q 3513 2838 3513 2113 
z
" transform="scale(0.015625)"/>
      <path id="DejaVuSans-20" transform="scale(0.015625)"/>
      <path id="DejaVuSans-78" d="M 3513 3500 
L 2247 1797 
L 3578 0 
L 2900 0 
L 1881 1375 
L 863 0 
L 184 0 
L 1544 1831 
L 300 3500 
L 978 3500 
L 1906 2253 
L 2834 3500 
L 3513 3500 
z
" transform="scale(0.015625)"/>
      <path id="DejaVuSans-70" d="M 1159 525 
L 1159 -1331 
L 581 -1331 
L 581 3500 
L 1159 3500 
L 1159 2969 
Q 1341 3281 1617 3432 
Q 1894 3584 2278 3584 
Q 2916 3584 3314 3078 
Q 3713 2572 3713 1747 
Q 3713 922 3314 415 
Q 2916 -91 2278 -91 
Q 1894 -91 1617 61 
Q 1341 213 1159 525 
z
M 3116 1747 
Q 3116 2381 2855 2742 
Q 2594 3103 2138 3103 
Q 1681 3103 1420 2742 
Q 1159 2381 1159 1747 
Q 1159 1113 1420 752 
Q 1681 391 2138 391 
Q 2594 391 2855 752 
Q 3116 1113 3116 1747 
z
" transform="scale(0.015625)"/>
      <path id="DejaVuSans-73" d="M 2834 3397 
L 2834 2853 
Q 2591 2978 2328 3040 
Q 2066 3103 1784 3103 
Q 1356 3103 1142 2972 
Q 928 2841 928 2578 
Q 928 2378 1081 2264 
Q 1234 2150 1697 2047 
L 1894 2003 
Q 2506 1872 2764 1633 
Q 3022 1394 3022 966 
Q 3022 478 2636 193 
Q 2250 -91 1575 -91 
Q 1294 -91 989 -36 
Q 684 19 347 128 
L 347 722 
Q 666 556 975 473 
Q 1284 391 1588 391 
Q 1994 391 2212 530 
Q 2431 669 2431 922 
Q 2431 1156 2273 1281 
Q 2116 1406 1581 1522 
L 1381 1569 
Q 847 1681 609 1914 
Q 372 2147 372 2553 
Q 372 3047 722 3315 
Q 1072 3584 1716 3584 
Q 2034 3584 2315 3537 
Q 2597 3491 2834 3397 
z
" transform="scale(0.015625)"/>
      <path id="DejaVuSans-75" d="M 544 1381 
L 544 3500 
L 1119 3500 
L 1119 1403 
Q 1119 906 1312 657 
Q 1506 409 1894 409 
Q 2359 409 2629 706 
Q 2900 1003 2900 1516 
L 2900 3500 
L 3475 3500 
L 3475 0 
L 2900 0 
L 2900 538 
Q 2691 219 2414 64 
Q 2138 -91 1772 -91 
Q 1169 -91 856 284 
Q 544 659 544 1381 
z
M 1991 3584 
L 1991 3584 
z
" transform="scale(0.015625)"/>
      <path id="DejaVuSans-74" d="M 1172 4494 
L 1172 3500 
L 2356 3500 
L 2356 3053 
L 1172 3053 
L 1172 1153 
Q 1172 725 1289 603 
Q 1406 481 1766 481 
L 2356 481 
L 2356 0 
L 1766 0 
Q 1100 0 847 248 
Q 594 497 594 1153 
L 594 3053 
L 172 3053 
L 172 3500 
L 594 3500 
L 594 4494 
L 1172 4494 
z
" transform="scale(0.015625)"/>
      <path id="DejaVuSans-77" d="M 269 3500 
L 844 3500 
L 1563 769 
L 2278 3500 
L 2956 3500 
L 3675 769 
L 4391 3500 
L 4966 3500 
L 4050 0 
L 3372 0 
L 2619 2869 
L 1863 0 
L 1184 0 
L 269 3500 
z
" transform="scale(0.015625)"/>
      <path id="DejaVuSans-6b" d="M 581 4863 
L 1159 4863 
L 1159 1991 
L 2875 3500 
L 3609 3500 
L 1753 1863 
L 3688 0 
L 2938 0 
L 1159 1709 
L 1159 0 
L 581 0 
L 581 4863 
z
" transform="scale(0.015625)"/>
      <path id="DejaVuSans-2013" d="M 313 1978 
L 2888 1978 
L 2888 1528 
L 313 1528 
L 313 1978 
z
" transform="scale(0.015625)"/>
      <path id="DejaVuSans-3d" d="M 678 2906 
L 4684 2906 
L 4684 2381 
L 678 2381 
L 678 2906 
z
M 678 1631 
L 4684 1631 
L 4684 1100 
L 678 1100 
L 678 1631 
z
" transform="scale(0.015625)"/>
      <path id="DejaVuSans-67" d="M 2906 1791 
Q 2906 2416 2648 2759 
Q 2391 3103 1925 3103 
Q 1463 3103 1205 2759 
Q 947 2416 947 1791 
Q 947 1169 1205 825 
Q 1463 481 1925 481 
Q 2391 481 2648 825 
Q 2906 1169 2906 1791 
z
M 3481 434 
Q 3481 -459 3084 -895 
Q 2688 -1331 1869 -1331 
Q 1566 -1331 1297 -1286 
Q 1028 -1241 775 -1147 
L 775 -588 
Q 1028 -725 1275 -790 
Q 1522 -856 1778 -856 
Q 2344 -856 2625 -561 
Q 2906 -266 2906 331 
L 2906 616 
Q 2728 306 2450 153 
Q 2172 0 1784 0 
Q 1141 0 747 490 
Q 353 981 353 1791 
Q 353 2603 747 3093 
Q 1141 3584 1784 3584 
Q 2172 3584 2450 3431 
Q 2728 3278 2906 2969 
L 2906 3500 
L 3481 3500 
L 3481 434 
z
" transform="scale(0.015625)"/>
      <path id="DejaVuSans-79" d="M 2059 -325 
Q 1816 -950 1584 -1140 
Q 1353 -1331 966 -1331 
L 506 -1331 
L 506 -850 
L 844 -850 
Q 1081 -850 1212 -737 
Q 1344 -625 1503 -206 
L 1606 56 
L 191 3500 
L 800 3500 
L 1894 763 
L 2988 3500 
L 3597 3500 
L 2059 -325 
z
" transform="scale(0.015625)"/>
      <path id="DejaVuSans-2c" d="M 750 794 
L 1409 794 
L 1409 256 
L 897 -744 
L 494 -744 
L 750 256 
L 750 794 
z
" transform="scale(0.015625)"/>
      <path id="DejaVuSans-61" d="M 2194 1759 
Q 1497 1759 1228 1600 
Q 959 1441 959 1056 
Q 959 750 1161 570 
Q 1363 391 1709 391 
Q 2188 391 2477 730 
Q 2766 1069 2766 1631 
L 2766 1759 
L 2194 1759 
z
M 3341 1997 
L 3341 0 
L 2766 0 
L 2766 531 
Q 2569 213 2275 61 
Q 1981 -91 1556 -91 
Q 1019 -91 701 211 
Q 384 513 384 1019 
Q 384 1609 779 1909 
Q 1175 2209 1959 2209 
L 2766 2209 
L 2766 2266 
Q 2766 2663 2505 2880 
Q 2244 3097 1772 3097 
Q 1472 3097 1187 3025 
Q 903 2953 641 2809 
L 641 3341 
Q 956 3463 1253 3523 
Q 1550 3584 1831 3584 
Q 2591 3584 2966 3190 
Q 3341 2797 3341 1997 
z
" transform="scale(0.015625)"/>
      <path id="DejaVuSans-32" d="M 1228 531 
L 3431 531 
L 3431 0 
L 469 0 
L 469 531 
Q 828 903 1448 1529 
Q 2069 2156 2228 2338 
Q 2531 2678 2651 2914 
Q 2772 3150 2772 3378 
Q 2772 3750 2511 3984 
Q 2250 4219 1831 4219 
Q 1534 4219 1204 4116 
Q 875 4013 500 3803 
L 500 4441 
Q 881 4594 1212 4672 
Q 1544 4750 1819 4750 
Q 2544 4750 2975 4387 
Q 3406 4025 3406 3419 
Q 3406 3131 3298 2873 
Q 3191 2616 2906 2266 
Q 2828 2175 2409 1742 
Q 1991 1309 1228 531 
z
" transform="scale(0.015625)"/>
      <path id="DejaVuSans-30" d="M 2034 4250 
Q 1547 4250 1301 3770 
Q 1056 3291 1056 2328 
Q 1056 1369 1301 889 
Q 1547 409 2034 409 
Q 2525 409 2770 889 
Q 3016 1369 3016 2328 
Q 3016 3291 2770 3770 
Q 2525 4250 2034 4250 
z
M 2034 4750 
Q 2819 4750 3233 4129 
Q 3647 3509 3647 2328 
Q 3647 1150 3233 529 
Q 2819 -91 2034 -91 
Q 1250 -91 836 529 
Q 422 1150 422 2328 
Q 422 3509 836 4129 
Q 1250 4750 2034 4750 
z
" transform="scale(0.015625)"/>
      <path id="DejaVuSans-34" d="M 2419 4116 
L 825 1625 
L 2419 1625 
L 2419 4116 
z
M 2253 4666 
L 3047 4666 
L 3047 1625 
L 3713 1625 
L 3713 1100 
L 3047 1100 
L 3047 0 
L 2419 0 
L 2419 1100 
L 313 1100 
L 313 1709 
L 2253 4666 
z
" transform="scale(0.015625)"/>
      <path id="DejaVuSans-28" d="M 1984 4856 
Q 1566 4138 1362 3434 
Q 1159 2731 1159 2009 
Q 1159 1288 1364 580 
Q 1569 -128 1984 -844 
L 1484 -844 
Q 1016 -109 783 600 
Q 550 1309 550 2009 
Q 550 2706 781 3412 
Q 1013 4119 1484 4856 
L 1984 4856 
z
" transform="scale(0.015625)"/>
      <path id="DejaVuSans-66" d="M 2375 4863 
L 2375 4384 
L 1825 4384 
Q 1516 4384 1395 4259 
Q 1275 4134 1275 3809 
L 1275 3500 
L 2222 3500 
L 2222 3053 
L 1275 3053 
L 1275 0 
L 697 0 
L 697 3053 
L 147 3053 
L 147 3500 
L 697 3500 
L 697 3744 
Q 697 4328 969 4595 
Q 1241 4863 1831 4863 
L 2375 4863 
z
" transform="scale(0.015625)"/>
      <path id="DejaVuSans-29" d="M 513 4856 
L 1013 4856 
Q 1481 4119 1714 3412 
Q 1947 2706 1947 2009 
Q 1947 1309 1714 600 
Q 1481 -109 1013 -844 
L 513 -844 
Q 928 -128 1133 580 
Q 1338 1288 1338 2009 
Q 1338 2731 1133 3434 
Q 928 4138 513 4856 
z
" transform="scale(0.015625)"/>
     </defs>
     <use xlink:href="#DejaVuSans-43"/>
     <use xlink:href="#DejaVuSans-6f" transform="translate(69.824219 0)"/>
     <use xlink:href="#DejaVuSans-65" transform="translate(131.005859 0)"/>
     <use xlink:href="#DejaVuSans-72" transform="translate(192.529297 0)"/>
     <use xlink:href="#DejaVuSans-63" transform="translate(231.392578 0)"/>
     <use xlink:href="#DejaVuSans-69" transform="translate(286.373047 0)"/>
     <use xlink:href="#DejaVuSans-6f" transform="translate(314.15625 0)"/>
     <use xlink:href="#DejaVuSans-6e" transform="translate(375.337891 0)"/>
     <use xlink:href="#DejaVuSans-20" transform="translate(438.716797 0)"/>
     <use xlink:href="#DejaVuSans-65" transform="translate(470.503906 0)"/>
     <use xlink:href="#DejaVuSans-78" transform="translate(530.277344 0)"/>
     <use xlink:href="#DejaVuSans-70" transform="translate(589.457031 0)"/>
     <use xlink:href="#DejaVuSans-6f" transform="translate(652.933594 0)"/>
     <use xlink:href="#DejaVuSans-73" transform="translate(714.115234 0)"/>
     <use xlink:href="#DejaVuSans-75" transform="translate(766.214844 0)"/>
     <use xlink:href="#DejaVuSans-72" transform="translate(829.59375 0)"/>
     <use xlink:href="#DejaVuSans-65" transform="translate(868.457031 0)"/>
     <use xlink:href="#DejaVuSans-20" transform="translate(929.980469 0)"/>
     <use xlink:href="#DejaVuSans-6e" transform="translate(961.767578 0)"/>
     <use xlink:href="#DejaVuSans-65" transform="translate(1025.146484 0)"/>
     <use xlink:href="#DejaVuSans-74" transform="translate(1086.669922 0)"/>
     <use xlink:href="#DejaVuSans-77" transform="translate(1125.878906 0)"/>
     <use xlink:href="#DejaVuSans-6f" transform="translate(1207.666016 0)"/>
     <use xlink:href="#DejaVuSans-72" transform="translate(1268.847656 0)"/>
     <use xlink:href="#DejaVuSans-6b" transform="translate(1309.960938 0)"/>
     <use xlink:href="#DejaVuSans-20" transform="translate(1367.871094 0)"/>
     <use xlink:href="#DejaVuSans-2013" transform="translate(1399.658203 0)"/>
     <use xlink:href="#DejaVuSans-20" transform="translate(1449.658203 0)"/>
     <use xlink:href="#DejaVuSans-73" transform="translate(1481.445312 0)"/>
     <use xlink:href="#DejaVuSans-65" transform="translate(1533.544922 0)"/>
     <use xlink:href="#DejaVuSans-63" transform="translate(1595.068359 0)"/>
     <use xlink:href="#DejaVuSans-74" transform="translate(1650.048828 0)"/>
     <use xlink:href="#DejaVuSans-6f" transform="translate(1689.257812 0)"/>
     <use xlink:href="#DejaVuSans-72" transform="translate(1750.439453 0)"/>
     <use xlink:href="#DejaVuSans-3d" transform="translate(1791.552734 0)"/>
     <use xlink:href="#DejaVuSans-65" transform="translate(1875.341797 0)"/>
     <use xlink:href="#DejaVuSans-6e" transform="translate(1936.865234 0)"/>
     <use xlink:href="#DejaVuSans-65" transform="translate(2000.244141 0)"/>
     <use xlink:href="#DejaVuSans-72" transform="translate(2061.767578 0)"/>
     <use xlink:href="#DejaVuSans-67" transform="translate(2101.130859 0)"/>
     <use xlink:href="#DejaVuSans-79" transform="translate(2164.607422 0)"/>
     <use xlink:href="#DejaVuSans-2c" transform="translate(2223.787109 0)"/>
     <use xlink:href="#DejaVuSans-20" transform="translate(2255.574219 0)"/>
     <use xlink:href="#DejaVuSans-79" transform="translate(2287.361328 0)"/>
     <use xlink:href="#DejaVuSans-65" transform="translate(2346.541016 0)"/>
     <use xlink:href="#DejaVuSans-61" transform="translate(2408.064453 0)"/>
     <use xlink:href="#DejaVuSans-72" transform="translate(2469.34375 0)"/>
     <use xlink:href="#DejaVuSans-3d" transform="translate(2510.457031 0)"/>
     <use xlink:href="#DejaVuSans-32" transform="translate(2594.246094 0)"/>
     <use xlink:href="#DejaVuSans-30" transform="translate(2657.869141 0)"/>
     <use xlink:href="#DejaVuSans-32" transform="translate(2721.492188 0)"/>
     <use xlink:href="#DejaVuSans-34" transform="translate(2785.115234 0)"/>
     <use xlink:href="#DejaVuSans-20" transform="translate(2848.738281 0)"/>
     <use xlink:href="#DejaVuSans-28" transform="translate(2880.525391 0)"/>
     <use xlink:href="#DejaVuSans-66" transform="translate(2919.539062 0)"/>
     <use xlink:href="#DejaVuSans-6f" transform="translate(2954.744141 0)"/>
     <use xlink:href="#DejaVuSans-63" transform="translate(3015.925781 0)"/>
     <use xlink:href="#DejaVuSans-75" transform="translate(3070.90625 0)"/>
     <use xlink:href="#DejaVuSans-73" transform="translate(3134.285156 0)"/>
     <use xlink:href="#DejaVuSans-20" transform="translate(3186.384766 0)"/>
     <use xlink:href="#DejaVuSans-49" transform="translate(3218.171875 0)"/>
     <use xlink:href="#DejaVuSans-4e" transform="translate(3247.664062 0)"/>
     <use xlink:href="#DejaVuSans-44" transform="translate(3322.46875 0)"/>
     <use xlink:href="#DejaVuSans-29" transform="translate(3399.470703 0)"/>
    </g>
   </g>
  </g>
 </g>
 <defs>
  <clipPath id="p99a9e758b7">
   <rect x="10.8" y="26.88" width="698.4" height="538.32"/>
  </clipPath>
 </defs>
</svg>
